<?xml version="1.0" standalone="no"?>
<!DOCTYPE svg PUBLIC "-//W3C//DTD SVG 20010904//EN"
 "http://www.w3.org/TR/2001/REC-SVG-20010904/DTD/svg10.dtd">
<svg version="1.0" xmlns="http://www.w3.org/2000/svg"
 width="980.000000pt" height="980.000000pt" viewBox="0 0 980.000000 980.000000"
 preserveAspectRatio="xMidYMid meet">
<metadata>
Created by potrace 1.14, written by Peter Selinger 2001-2017
</metadata>
<g transform="translate(0.000000,980.000000) scale(0.100000,-0.100000)"
fill="#000000" stroke="none">
<path d="M2825 8340 l-90 -5 -3 -3252 c-2 -3093 -1 -3253 15 -3254 10 0 67 0
126 0 79 1 106 -2 101 -11 -5 -8 -3 -8 7 -2 19 12 62 12 71 -1 5 -6 8 -5 8 3
0 6 6 12 14 12 15 0 29 -27 21 -40 -3 -5 9 -16 27 -25 25 -12 29 -13 15 -1
-12 9 -14 16 -7 21 6 4 8 15 5 24 -5 17 8 18 195 18 113 0 200 -4 200 -9 0 -5
-5 -6 -11 -3 -5 4 -20 -1 -31 -12 -19 -16 -21 -16 -15 -1 4 12 2 15 -9 11 -27
-10 -13 -29 19 -24 4 0 7 -3 7 -9 0 -5 5 -10 11 -10 8 0 9 4 0 13 -11 14 -5
27 11 27 5 0 6 -6 3 -13 -4 -6 2 -2 13 10 24 27 38 29 46 7 10 -25 7 -30 -15
-31 -17 -2 -19 1 -10 10 6 6 11 15 11 21 0 5 -6 1 -14 -9 -18 -25 -12 -36 17
-31 16 2 22 10 22 30 -1 14 3 26 7 26 8 0 12 -16 9 -33 -1 -5 3 -6 8 -2 6 3 8
12 4 20 -4 11 3 15 27 15 22 0 29 -4 24 -12 -6 -10 -4 -10 7 -2 8 6 33 11 56
11 36 0 42 -3 40 -20 -1 -11 5 -21 13 -22 8 -2 22 -4 30 -6 11 -3 15 4 15 24
-1 25 13 40 16 17 1 -5 2 -15 3 -20 1 -14 28 -30 38 -24 11 7 10 44 -1 44 -5
0 -7 -9 -4 -20 4 -15 1 -19 -9 -15 -7 3 -14 14 -15 25 -1 16 5 20 28 20 22 0
28 -4 23 -12 -6 -10 -4 -10 7 -2 8 6 33 11 57 11 33 0 42 -3 37 -14 -3 -8 -5
-19 -5 -24 0 -6 -5 -7 -10 -4 -6 3 -13 -1 -16 -9 -3 -9 -11 -13 -18 -9 -6 3
-8 3 -4 -2 4 -4 4 -13 -2 -19 -6 -8 -3 -12 9 -12 12 0 17 5 13 15 -3 9 -1 12
6 7 8 -5 10 -1 5 10 -4 12 -3 15 6 10 7 -5 15 3 22 23 13 36 35 41 44 10 10
-29 -3 -37 -14 -8 -9 23 -10 23 -10 3 -1 -26 27 -40 35 -19 4 8 4 22 0 30 -3
8 -1 15 5 15 5 0 12 -7 14 -15 3 -8 7 -22 10 -31 3 -9 8 -15 11 -12 2 3 0 17
-5 32 -10 25 -9 26 20 26 19 0 28 -4 23 -11 -4 -8 -1 -8 12 -1 23 11 334 13
334 1 0 -5 -6 -6 -14 -3 -8 3 -17 1 -21 -5 -4 -7 0 -8 11 -4 13 5 15 3 10 -8
-4 -8 1 -4 12 9 30 34 48 28 43 -15 -3 -19 16 -24 33 -8 8 9 13 22 10 30 -5
11 2 15 26 15 22 0 29 -4 24 -12 -6 -10 -4 -10 7 -2 8 6 33 11 57 11 37 0 42
-3 37 -19 -4 -10 -2 -18 4 -18 6 0 10 3 10 8 -3 20 2 32 15 32 21 0 27 -28 8
-39 -9 -5 -13 -13 -9 -17 10 -10 38 28 32 44 -6 18 6 15 21 -5 18 -25 17 -33
-3 -27 -15 5 -16 4 -3 -5 20 -14 39 4 22 21 -20 20 -14 28 19 28 21 0 28 -4
23 -12 -6 -10 -4 -10 7 -2 8 6 33 11 57 11 36 0 42 -3 37 -18 -4 -11 1 -22 14
-28 25 -14 37 2 21 26 -9 16 -10 15 -5 -4 5 -18 3 -22 -10 -17 -9 4 -14 13
-11 21 3 8 6 17 6 19 0 2 6 4 13 4 7 0 21 -13 30 -30 16 -26 20 -28 42 -18 14
6 25 15 25 20 0 5 9 6 20 3 13 -4 22 -1 26 9 13 33 40 17 35 -21 -3 -19 16
-24 33 -8 8 9 13 22 10 30 -5 11 2 15 26 15 22 0 29 -4 24 -12 -6 -10 -4 -10
7 -2 8 6 33 11 57 11 37 0 42 -3 37 -19 -4 -10 -2 -18 4 -18 6 0 10 3 10 8 -3
20 2 32 15 32 21 0 27 -28 8 -39 -9 -5 -13 -13 -9 -17 10 -10 38 28 32 44 -6
18 6 15 21 -5 18 -25 17 -33 -3 -27 -15 5 -16 4 -3 -5 20 -14 39 4 22 21 -20
20 -14 28 19 28 21 0 28 -4 23 -12 -6 -10 -4 -10 7 -2 8 6 33 11 57 11 35 0
41 -3 37 -17 -3 -10 1 -23 10 -30 9 -7 15 -8 15 -2 0 6 -5 12 -11 14 -13 4 -1
38 15 38 6 0 20 -14 30 -30 10 -17 22 -27 28 -24 8 5 9 1 4 -12 -5 -14 -4 -16
5 -7 13 13 3 37 -12 28 -5 -4 -9 -2 -9 4 0 5 8 15 18 20 9 6 12 11 7 11 -6 0
-16 -5 -22 -11 -7 -7 -12 -6 -16 6 -5 13 0 15 28 13 38 -2 42 -7 23 -26 -9 -9
-9 -12 -1 -12 7 0 14 8 17 18 6 17 21 19 181 19 101 0 175 -4 175 -9 0 -5 -5
-6 -11 -3 -5 4 -20 -1 -31 -12 -19 -16 -21 -16 -15 -1 4 12 2 15 -9 11 -27
-10 -13 -29 19 -24 4 0 7 -3 7 -9 0 -5 5 -10 11 -10 8 0 9 4 0 13 -11 14 -5
27 11 27 5 0 6 -6 3 -12 -4 -7 2 -3 13 10 24 26 38 28 46 6 10 -25 7 -30 -15
-31 -17 -2 -19 1 -10 10 6 6 11 15 11 21 0 5 -6 1 -14 -9 -18 -25 -12 -36 17
-31 16 2 22 10 22 30 -1 14 3 26 7 26 8 0 12 -16 9 -33 -1 -5 3 -6 8 -2 6 3 8
12 4 20 -4 11 3 15 27 15 22 0 29 -4 24 -12 -6 -10 -4 -10 7 -2 8 6 33 11 56
11 36 0 42 -3 40 -20 -1 -11 5 -21 13 -22 8 -2 22 -4 30 -6 11 -3 15 4 15 24
-1 35 10 35 23 -1 12 -34 36 -37 71 -10 13 10 19 18 14 18 -5 0 -14 -5 -21
-12 -9 -9 -13 -7 -18 5 -3 9 -11 17 -17 17 -5 0 -2 -9 8 -19 16 -19 16 -20 -4
-18 -12 1 -21 4 -21 8 0 4 -3 14 -6 23 -5 13 1 16 26 16 22 0 29 -4 24 -12 -6
-10 -4 -10 7 -2 15 12 99 16 99 4 0 -3 -6 -14 -13 -24 -12 -17 -14 -17 -20 -2
-4 9 -1 16 5 16 6 0 9 2 6 5 -8 8 -38 -6 -38 -17 0 -5 4 -7 9 -4 5 3 11 -1 15
-9 8 -21 33 -8 40 21 8 29 27 31 44 4 7 -12 17 -18 21 -15 5 2 11 -1 14 -9 3
-7 16 -12 29 -11 32 3 32 3 18 20 -8 10 -9 15 -1 15 6 0 16 -9 23 -20 7 -11
17 -20 22 -20 4 0 2 8 -5 17 -12 14 -12 16 2 11 9 -4 16 -1 16 7 0 10 -5 11
-18 5 -11 -7 -20 -5 -28 4 -9 11 21 13 179 12 104 0 190 3 190 7 0 5 5 5 10 2
6 -3 10 -1 10 4 0 6 -4 11 -10 11 -16 0 -7 113 10 127 8 7 11 13 5 13 -5 1 -1
6 10 11 l20 9 -20 -3 c-11 -2 -19 -9 -17 -15 1 -7 -2 -12 -7 -12 -11 0 -9 161
3 179 6 10 5 12 -2 7 -22 -13 -12 11 11 28 l22 17 -22 -11 c-13 -6 -23 -7 -23
-1 0 5 7 12 16 15 9 4 14 9 11 13 -4 3 1 11 10 18 13 9 13 14 3 20 -8 5 -11 4
-7 -2 4 -6 0 -14 -9 -17 -8 -3 -12 -10 -9 -16 3 -5 2 -10 -3 -10 -13 0 -11
162 2 179 8 11 8 13 -1 7 -7 -4 -13 -3 -13 3 0 6 12 17 28 25 15 8 23 15 19
16 -5 0 -17 -5 -28 -10 -11 -6 -19 -7 -19 -1 0 5 7 12 16 15 8 3 13 10 10 15
-4 5 -1 11 6 14 7 2 6 3 -2 2 -8 0 -14 -7 -12 -13 1 -7 -2 -12 -7 -12 -11 0
-9 161 3 179 6 10 5 12 -2 7 -22 -13 -12 11 11 28 l22 17 -22 -11 c-13 -6 -23
-7 -23 -1 0 5 7 12 16 15 9 4 14 9 11 13 -4 3 1 11 10 18 13 9 13 14 3 20 -8
5 -11 4 -7 -2 4 -6 0 -14 -9 -17 -8 -3 -12 -10 -9 -16 3 -5 2 -10 -3 -10 -13
0 -11 82 2 99 8 11 8 13 -1 7 -22 -13 -14 11 10 28 l22 17 -22 -11 c-13 -6
-23 -7 -23 -1 0 5 7 12 16 15 9 4 14 9 11 13 -4 3 1 11 10 18 13 9 13 14 3 20
-8 5 -11 4 -7 -2 4 -6 0 -14 -9 -17 -8 -3 -12 -10 -9 -16 3 -5 2 -10 -3 -10
-13 0 -11 162 2 179 8 11 8 13 -2 7 -6 -4 -12 -3 -12 3 0 6 12 17 28 25 15 8
23 15 19 16 -5 0 -17 -5 -28 -10 -11 -6 -19 -7 -19 -1 0 5 7 12 16 15 8 3 13
10 10 15 -4 5 -1 11 6 14 7 2 6 3 -2 2 -8 0 -14 -7 -12 -13 1 -7 -2 -12 -7
-12 -11 0 -9 161 3 179 6 10 5 12 -2 7 -22 -13 -12 11 11 28 l22 17 -22 -11
c-13 -6 -23 -7 -23 -1 0 5 7 12 16 15 9 4 14 9 11 13 -4 3 1 11 10 18 13 9 13
14 3 20 -8 5 -11 4 -7 -2 4 -6 0 -14 -9 -17 -8 -3 -12 -10 -9 -16 3 -5 2 -10
-3 -10 -13 0 -11 82 2 99 8 11 8 13 -1 7 -22 -13 -14 11 10 28 l22 17 -22 -11
c-13 -6 -23 -7 -23 -1 0 5 7 12 16 15 9 4 14 9 11 13 -4 3 1 11 10 18 13 9 13
14 3 20 -8 5 -11 4 -7 -2 4 -6 0 -14 -9 -17 -8 -3 -12 -10 -9 -16 3 -5 2 -10
-3 -10 -13 0 -11 162 2 179 8 11 8 13 -1 7 -7 -4 -13 -3 -13 3 0 6 12 17 28
25 15 8 23 15 19 16 -5 0 -17 -5 -28 -10 -11 -6 -19 -7 -19 -1 0 5 7 12 16 15
8 3 13 10 10 15 -4 5 -1 11 6 14 7 2 6 3 -2 2 -8 0 -14 -7 -13 -13 2 -7 -1
-12 -6 -12 -11 0 -9 161 3 179 6 10 5 12 -2 7 -22 -13 -12 11 11 28 l22 17
-22 -11 c-13 -6 -23 -7 -23 -1 0 5 7 12 16 15 9 4 14 9 11 13 -4 3 1 11 10 18
13 9 13 14 3 20 -8 5 -11 4 -7 -2 4 -6 0 -14 -9 -17 -8 -3 -12 -10 -9 -16 3
-5 2 -10 -3 -10 -13 0 -11 82 2 99 8 11 8 13 -1 7 -22 -13 -14 11 10 28 l22
17 -22 -11 c-13 -6 -23 -7 -23 -1 0 5 7 12 16 15 9 4 14 9 11 13 -4 3 1 11 10
18 13 9 13 14 3 20 -8 5 -11 4 -7 -2 4 -6 0 -14 -9 -17 -8 -3 -12 -10 -9 -16
3 -5 2 -10 -3 -10 -13 0 -11 162 2 179 8 11 8 13 -1 7 -7 -4 -13 -3 -13 3 0 6
12 17 28 25 15 8 23 15 19 16 -5 0 -17 -5 -28 -10 -11 -6 -19 -7 -19 -1 0 5 7
12 16 15 8 3 13 10 10 15 -4 5 2 12 11 15 14 4 13 4 -2 2 -11 -1 -19 -8 -18
-14 2 -7 -1 -12 -6 -12 -11 0 -9 161 3 179 6 10 5 12 -2 7 -22 -13 -12 11 11
28 l22 17 -22 -11 c-13 -6 -23 -7 -23 -1 0 5 7 12 16 15 9 4 14 9 11 13 -4 3
1 11 10 18 13 9 13 14 3 20 -8 5 -11 4 -7 -2 4 -6 0 -14 -9 -17 -8 -3 -12 -10
-9 -16 3 -5 2 -10 -3 -10 -5 0 -9 42 -8 93 0 70 4 95 15 105 14 12 14 13 0 9
-22 -7 -22 53 0 71 14 12 14 13 -1 8 -12 -3 -18 0 -18 10 0 8 5 12 11 9 6 -4
5 3 -3 14 -11 18 -11 23 1 31 8 4 16 16 17 24 1 9 -2 14 -7 10 -5 -3 -7 -10
-4 -15 4 -5 2 -9 -3 -9 -15 0 -10 64 7 78 14 12 14 13 -1 8 -13 -4 -18 0 -18
14 0 18 32 45 42 35 3 -3 5 1 5 9 0 12 -4 12 -24 -1 -12 -8 -23 -11 -23 -5 0
6 5 12 12 14 6 2 12 12 14 21 1 9 -2 15 -7 11 -5 -3 -7 -10 -4 -15 4 -5 2 -9
-3 -9 -15 0 -10 64 7 78 14 12 14 13 -1 8 -13 -4 -18 0 -18 14 0 18 32 45 42
35 3 -3 5 1 5 9 0 12 -4 12 -24 -1 -12 -8 -23 -11 -23 -5 0 5 7 13 16 16 15 6
15 9 1 29 -14 21 -13 24 1 34 15 9 15 13 3 24 -12 12 -13 11 -8 -3 4 -10 2
-18 -3 -18 -16 0 -7 123 10 137 8 7 11 13 5 13 -5 1 -1 6 10 11 l20 9 -20 -3
c-11 -2 -19 -9 -18 -15 2 -7 -1 -12 -6 -12 -11 0 -9 161 3 179 6 10 5 12 -2 7
-22 -13 -12 11 11 28 l22 17 -22 -11 c-13 -6 -23 -7 -23 -1 0 5 7 12 16 15 9
4 14 9 11 13 -4 3 1 11 10 18 13 9 13 14 3 20 -8 5 -11 4 -7 -2 4 -6 0 -14 -9
-17 -8 -3 -12 -10 -9 -16 3 -5 2 -10 -3 -10 -12 0 -10 160 2 179 6 10 5 12 -2
7 -7 -4 -12 -3 -12 3 0 6 12 17 28 25 15 8 23 15 19 16 -5 0 -17 -5 -28 -10
-11 -6 -19 -7 -19 -1 0 5 7 12 16 15 8 3 13 10 10 15 -4 5 1 12 9 14 11 3 10
4 -2 3 -10 -1 -17 -8 -16 -14 2 -7 -1 -12 -6 -12 -11 0 -9 161 3 179 6 10 5
12 -2 7 -22 -13 -12 11 11 28 l22 17 -22 -11 c-13 -6 -23 -7 -23 -1 0 5 7 12
16 15 9 4 14 9 11 13 -4 3 1 11 10 18 13 9 13 14 3 20 -8 5 -11 4 -7 -2 4 -6
0 -14 -9 -17 -8 -3 -12 -10 -9 -16 3 -5 2 -10 -3 -10 -5 0 -9 17 -10 38 0 29
2 33 8 17 7 -16 9 -17 9 -3 1 9 -4 20 -10 23 -6 5 -4 12 8 20 15 12 16 16 4
27 -12 11 -13 10 -8 -4 4 -10 2 -18 -3 -18 -16 0 -7 123 10 137 8 7 11 13 5
13 -5 1 -1 6 10 11 l20 9 -20 -3 c-11 -2 -19 -9 -18 -15 2 -7 -1 -12 -5 -12
-5 0 -9 60 -8 133 0 106 3 135 16 145 13 12 13 13 -1 9 -22 -7 -22 53 0 71 14
12 14 13 -1 8 -12 -3 -18 0 -18 10 0 8 5 12 11 9 6 -4 5 3 -3 14 -11 18 -11
23 1 31 8 4 16 16 17 24 1 9 -2 14 -7 10 -5 -3 -7 -10 -4 -15 4 -5 2 -9 -3 -9
-15 0 -10 64 7 78 14 12 14 13 -1 8 -13 -4 -18 0 -18 14 0 18 32 45 42 35 3
-3 5 1 5 9 0 12 -4 12 -24 -1 -12 -8 -23 -11 -23 -5 0 6 5 12 12 14 6 2 12 12
14 21 1 9 -2 15 -7 11 -5 -3 -7 -10 -4 -15 4 -5 2 -9 -3 -9 -15 0 -10 64 7 78
14 12 14 13 -1 8 -13 -4 -18 0 -18 14 0 18 32 45 42 35 3 -3 5 1 5 9 0 12 -4
12 -24 -1 -12 -8 -23 -11 -23 -5 0 5 7 12 15 15 8 4 12 15 10 27 -3 16 0 20
10 16 8 -3 15 -1 15 5 0 6 -8 9 -17 7 -11 -2 -18 -12 -17 -26 1 -12 -2 -22 -6
-22 -3 0 -6 33 -6 73 0 53 4 76 15 85 15 12 14 13 0 9 -22 -7 -22 53 0 71 14
12 14 13 -1 8 -12 -3 -18 0 -18 10 0 8 5 12 11 9 6 -4 5 3 -3 14 -11 18 -11
23 1 31 8 4 16 16 17 24 1 9 -2 14 -7 10 -5 -3 -7 -10 -4 -15 4 -5 2 -9 -3 -9
-15 0 -10 64 7 78 14 12 14 13 -1 8 -13 -4 -18 0 -18 14 0 18 32 45 42 35 3
-3 5 1 5 9 0 12 -4 12 -24 -1 -12 -8 -23 -11 -23 -5 0 6 5 12 12 14 6 2 12 12
14 21 1 9 -2 15 -7 11 -5 -3 -7 -10 -4 -15 4 -5 2 -9 -3 -9 -15 0 -10 64 7 78
14 12 14 13 -1 8 -13 -4 -18 0 -18 14 0 18 32 45 42 35 3 -3 5 1 5 9 0 12 -4
12 -24 -1 -12 -8 -23 -11 -23 -5 0 5 7 13 16 16 9 4 14 9 11 13 -4 3 -2 15 4
27 10 20 9 20 -5 2 -9 -10 -13 -23 -10 -27 3 -5 0 -9 -6 -9 -13 0 -9 42 5 52
7 5 7 8 0 8 -6 0 -11 77 -12 207 -2 113 -4 208 -6 210 -6 5 -4152 9 -4252 3z
m4269 -3025 c3 -8 1 -15 -4 -15 -6 0 -10 7 -10 15 0 8 2 15 4 15 2 0 6 -7 10
-15z m-3970 -3501 c6 -16 0 -34 -12 -34 -4 0 -7 11 -7 25 0 28 10 33 19 9z
m690 0 c11 -28 7 -35 -14 -24 -11 6 -20 8 -20 4 0 -4 -2 -5 -5 -2 -9 9 6 38
20 38 7 0 16 -7 19 -16z m749 2 c3 -8 0 -20 -8 -26 -10 -8 -13 -5 -11 15 1 28
11 33 19 11z m524 0 c-2 -5 -12 -15 -23 -23 -19 -12 -22 -11 -32 12 -12 25
-11 26 23 23 20 -1 34 -6 32 -12z m43 4 c0 -5 -4 -10 -9 -10 -6 0 -13 5 -16
10 -3 6 1 10 9 10 9 0 16 -4 16 -10z m73 -4 c3 -8 0 -20 -8 -26 -10 -8 -13 -5
-11 15 1 28 11 33 19 11z m1171 -2 c11 -28 7 -35 -14 -24 -11 6 -20 8 -20 4 0
-4 -2 -5 -5 -2 -9 9 6 38 20 38 7 0 16 -7 19 -16z m312 0 c-2 -6 0 -16 6 -22
8 -8 5 -11 -10 -9 -22 1 -41 27 -20 27 6 0 8 3 5 6 -4 4 -13 2 -21 -5 -11 -9
-15 -8 -20 4 -4 13 1 15 29 13 22 -1 34 -6 31 -14z"/>
<path d="M5045 1810 c-3 -6 1 -7 9 -4 18 7 21 14 7 14 -6 0 -13 -4 -16 -10z"/>
<path d="M7115 8160 c-3 -5 -1 -10 4 -10 6 0 11 5 11 10 0 6 -2 10 -4 10 -3 0
-8 -4 -11 -10z"/>
<path d="M7179 8148 c-5 -18 -6 -38 -1 -34 7 8 12 36 6 36 -2 0 -4 -1 -5 -2z"/>
<path d="M7091 8114 c0 -11 3 -14 6 -6 3 7 2 16 -1 19 -3 4 -6 -2 -5 -13z"/>
<path d="M7095 8071 c-9 -15 15 -25 28 -12 9 9 7 10 -7 5 -13 -5 -17 -4 -12 4
4 7 5 12 2 12 -3 0 -7 -4 -11 -9z"/>
<path d="M7115 8019 c-4 -6 -5 -12 -2 -15 2 -3 7 2 10 11 7 17 1 20 -8 4z"/>
<path d="M7147 8023 c7 -2 9 -11 6 -19 -3 -8 1 -14 8 -14 7 0 9 3 6 7 -4 3 -3
11 3 17 6 8 2 12 -13 13 -12 0 -17 -1 -10 -4z"/>
<path d="M7095 7980 c3 -5 8 -10 11 -10 2 0 4 5 4 10 0 6 -5 10 -11 10 -5 0
-7 -4 -4 -10z"/>
<path d="M7185 7980 c-3 -6 1 -7 9 -4 18 7 21 14 7 14 -6 0 -13 -4 -16 -10z"/>
<path d="M7132 7971 c-11 -7 -11 -9 0 -14 9 -3 15 1 15 9 0 8 -1 14 -1 14 -1
0 -7 -4 -14 -9z"/>
<path d="M7096 7943 c-6 -14 -5 -15 5 -6 7 7 10 15 7 18 -3 3 -9 -2 -12 -12z"/>
<path d="M7122 7916 c7 -8 15 -12 17 -11 5 6 -10 25 -20 25 -5 0 -4 -6 3 -14z"/>
<path d="M7120 7881 c0 -5 7 -12 16 -15 14 -5 15 -4 4 9 -14 17 -20 19 -20 6z"/>
<path d="M7173 7875 c0 -8 4 -12 9 -9 4 3 8 9 8 15 0 5 -4 9 -8 9 -5 0 -9 -7
-9 -15z"/>
<path d="M7213 7869 c-2 -23 3 -25 10 -4 4 8 3 16 -1 19 -4 3 -9 -4 -9 -15z"/>
<path d="M7110 7811 c0 -6 5 -13 12 -17 6 -4 8 -3 4 4 -3 5 0 13 6 15 8 3 6 6
-4 6 -10 1 -18 -3 -18 -8z"/>
<path d="M7210 7799 c0 -5 5 -7 10 -4 6 3 10 8 10 11 0 2 -4 4 -10 4 -5 0 -10
-5 -10 -11z"/>
<path d="M7155 7781 c-3 -5 -2 -12 3 -15 5 -3 9 1 9 9 0 17 -3 19 -12 6z"/>
<path d="M7102 7761 c-7 -4 -5 -11 9 -20 16 -9 19 -10 13 0 -5 9 -2 10 9 6 23
-9 22 0 -1 12 -10 5 -23 6 -30 2z"/>
<path d="M7194 7749 c-3 -6 -2 -15 3 -20 5 -5 9 -1 9 11 0 23 -2 24 -12 9z"/>
<path d="M7120 7716 c0 -2 7 -7 16 -10 8 -3 12 -2 9 4 -6 10 -25 14 -25 6z"/>
<path d="M7214 7696 c1 -8 5 -18 8 -22 4 -3 5 1 4 10 -1 8 -5 18 -8 22 -4 3
-5 -1 -4 -10z"/>
<path d="M7110 7651 c0 -6 5 -13 12 -17 6 -4 8 -3 4 4 -3 5 0 13 6 15 8 3 6 6
-4 6 -10 1 -18 -3 -18 -8z"/>
<path d="M7155 7621 c-3 -5 -2 -12 3 -15 5 -3 9 1 9 9 0 17 -3 19 -12 6z"/>
<path d="M7115 7599 c6 -9 3 -11 -8 -6 -24 9 -21 0 4 -14 17 -9 20 -8 14 2 -6
9 -3 11 8 6 24 -9 21 0 -4 14 -17 9 -20 8 -14 -2z"/>
<path d="M7190 7580 c0 -5 5 -10 11 -10 5 0 7 5 4 10 -3 6 -8 10 -11 10 -2 0
-4 -4 -4 -10z"/>
<path d="M7220 7555 c-7 -9 -11 -17 -9 -20 3 -2 10 5 17 15 14 24 10 26 -8 5z"/>
<path d="M7120 7556 c0 -2 7 -7 16 -10 8 -3 12 -2 9 4 -6 10 -25 14 -25 6z"/>
<path d="M7106 7525 c-18 -14 -18 -14 1 -12 11 0 20 7 20 14 0 7 -1 13 -1 13
-1 0 -9 -7 -20 -15z"/>
<path d="M7110 7491 c0 -6 5 -13 12 -17 6 -4 8 -3 4 4 -3 5 0 13 6 15 8 3 6 6
-4 6 -10 1 -18 -3 -18 -8z"/>
<path d="M7210 7479 c0 -5 5 -7 10 -4 6 3 10 8 10 11 0 2 -4 4 -10 4 -5 0 -10
-5 -10 -11z"/>
<path d="M7156 7445 c4 -8 8 -15 10 -15 2 0 4 7 4 15 0 8 -4 15 -10 15 -5 0
-7 -7 -4 -15z"/>
<path d="M7115 7439 c6 -9 3 -11 -8 -6 -24 9 -21 0 4 -14 17 -9 20 -8 14 2 -6
9 -3 11 8 6 24 -9 21 0 -4 14 -17 9 -20 8 -14 -2z"/>
<path d="M7189 7423 c-13 -16 -12 -17 4 -4 9 7 17 15 17 17 0 8 -8 3 -21 -13z"/>
<path d="M7120 7396 c0 -2 7 -7 16 -10 8 -3 12 -2 9 4 -6 10 -25 14 -25 6z"/>
<path d="M7108 7367 c-15 -12 -15 -14 3 -25 10 -7 22 -12 26 -12 5 0 0 5 -10
11 -14 8 -16 14 -6 25 14 17 9 18 -13 1z"/>
<path d="M7140 7360 c-9 -6 -10 -10 -3 -10 6 0 15 5 18 10 8 12 4 12 -15 0z"/>
<path d="M7156 7342 c-3 -5 1 -9 9 -9 8 0 12 4 9 9 -3 4 -7 8 -9 8 -2 0 -6 -4
-9 -8z"/>
<path d="M7097 7315 c-6 -15 10 -32 20 -21 4 3 1 6 -5 6 -6 0 -9 7 -6 15 4 8
4 15 1 15 -3 0 -7 -7 -10 -15z"/>
<path d="M7213 7311 c0 -11 5 -18 9 -15 4 3 5 11 1 19 -7 21 -12 19 -10 -4z"/>
<path d="M7133 7296 c-4 -5 -1 -6 7 -1 9 5 11 1 6 -16 -3 -13 -3 -18 0 -11 3
6 11 9 17 5 7 -3 9 -3 5 2 -4 4 -4 13 2 19 6 8 3 12 -11 12 -11 0 -23 -5 -26
-10z"/>
<path d="M7213 7240 c0 -23 3 -28 9 -16 5 9 5 23 0 32 -6 12 -9 7 -9 -16z"/>
<path d="M7132 7241 c-11 -7 -11 -9 0 -14 9 -3 15 1 15 9 0 8 -1 14 -1 14 -1
0 -7 -4 -14 -9z"/>
<path d="M7110 7171 c0 -6 5 -13 12 -17 6 -4 8 -3 4 4 -3 5 0 13 6 15 8 3 6 6
-4 6 -10 1 -18 -3 -18 -8z"/>
<path d="M7210 7159 c0 -5 5 -7 10 -4 6 3 10 8 10 11 0 2 -4 4 -10 4 -5 0 -10
-5 -10 -11z"/>
<path d="M7155 7141 c-3 -5 -2 -12 3 -15 5 -3 9 1 9 9 0 17 -3 19 -12 6z"/>
<path d="M7102 7121 c-7 -4 -5 -11 9 -20 16 -9 19 -10 13 0 -5 9 -2 10 9 6 23
-9 22 0 -1 12 -10 5 -23 6 -30 2z"/>
<path d="M7194 7109 c-3 -6 -2 -15 3 -20 5 -5 9 -1 9 11 0 23 -2 24 -12 9z"/>
<path d="M7120 7076 c0 -2 7 -7 16 -10 8 -3 12 -2 9 4 -6 10 -25 14 -25 6z"/>
<path d="M7214 7056 c1 -8 5 -18 8 -22 4 -3 5 1 4 10 -1 8 -5 18 -8 22 -4 3
-5 -1 -4 -10z"/>
<path d="M7110 7011 c0 -6 5 -13 12 -17 6 -4 8 -3 4 4 -3 5 0 13 6 15 8 3 6 6
-4 6 -10 1 -18 -3 -18 -8z"/>
<path d="M7155 6981 c-3 -5 -2 -12 3 -15 5 -3 9 1 9 9 0 17 -3 19 -12 6z"/>
<path d="M7115 6959 c6 -9 3 -11 -8 -6 -24 9 -21 0 4 -14 17 -9 20 -8 14 2 -6
9 -3 11 8 6 24 -9 21 0 -4 14 -17 9 -20 8 -14 -2z"/>
<path d="M7190 6940 c0 -5 5 -10 11 -10 5 0 7 5 4 10 -3 6 -8 10 -11 10 -2 0
-4 -4 -4 -10z"/>
<path d="M7220 6915 c-7 -9 -11 -17 -9 -20 3 -2 10 5 17 15 14 24 10 26 -8 5z"/>
<path d="M7120 6916 c0 -2 7 -7 16 -10 8 -3 12 -2 9 4 -6 10 -25 14 -25 6z"/>
<path d="M7106 6885 c-18 -14 -18 -14 1 -12 11 0 20 7 20 14 0 7 -1 13 -1 13
-1 0 -9 -7 -20 -15z"/>
<path d="M7110 6851 c0 -6 5 -13 12 -17 6 -4 8 -3 4 4 -3 5 0 13 6 15 8 3 6 6
-4 6 -10 1 -18 -3 -18 -8z"/>
<path d="M7210 6839 c0 -5 5 -7 10 -4 6 3 10 8 10 11 0 2 -4 4 -10 4 -5 0 -10
-5 -10 -11z"/>
<path d="M7156 6805 c4 -8 8 -15 10 -15 2 0 4 7 4 15 0 8 -4 15 -10 15 -5 0
-7 -7 -4 -15z"/>
<path d="M7115 6799 c6 -9 3 -11 -8 -6 -24 9 -21 0 4 -14 17 -9 20 -8 14 2 -6
9 -3 11 8 6 24 -9 21 0 -4 14 -17 9 -20 8 -14 -2z"/>
<path d="M7189 6783 c-13 -16 -12 -17 4 -4 9 7 17 15 17 17 0 8 -8 3 -21 -13z"/>
<path d="M7120 6756 c0 -2 7 -7 16 -10 8 -3 12 -2 9 4 -6 10 -25 14 -25 6z"/>
<path d="M7108 6727 c-15 -12 -15 -14 3 -25 10 -7 22 -12 26 -12 5 0 0 5 -10
11 -14 8 -16 14 -6 25 14 17 9 18 -13 1z"/>
<path d="M7140 6720 c-9 -6 -10 -10 -3 -10 6 0 15 5 18 10 8 12 4 12 -15 0z"/>
<path d="M7156 6702 c-3 -5 1 -9 9 -9 8 0 12 4 9 9 -3 4 -7 8 -9 8 -2 0 -6 -4
-9 -8z"/>
<path d="M7097 6675 c-6 -15 10 -32 20 -21 4 3 1 6 -5 6 -6 0 -9 7 -6 15 4 8
4 15 1 15 -3 0 -7 -7 -10 -15z"/>
<path d="M7213 6671 c0 -11 5 -18 9 -15 4 3 5 11 1 19 -7 21 -12 19 -10 -4z"/>
<path d="M7133 6656 c-4 -5 -1 -6 7 -1 9 5 11 1 6 -16 -3 -13 -3 -18 0 -11 3
6 11 9 17 5 7 -3 9 -3 5 2 -4 4 -4 13 2 19 6 8 3 12 -11 12 -11 0 -23 -5 -26
-10z"/>
<path d="M7099 6628 c-5 -18 -2 -55 4 -51 5 3 6 14 4 25 -4 14 -2 18 9 14 8
-3 14 -1 14 4 0 8 -28 15 -31 8z"/>
<path d="M7210 6623 c0 -6 8 -17 18 -24 16 -13 16 -13 2 6 -8 11 -16 22 -17
24 -2 2 -3 0 -3 -6z"/>
<path d="M7110 6565 c0 -5 5 -17 10 -25 5 -8 10 -10 10 -5 0 6 -5 17 -10 25
-5 8 -10 11 -10 5z"/>
<path d="M7213 6551 c0 -11 5 -18 9 -15 4 3 5 11 1 19 -7 21 -12 19 -10 -4z"/>
<path d="M7093 6522 c-1 -22 0 -24 9 -8 6 10 6 22 2 26 -5 5 -10 -3 -11 -18z"/>
<path d="M7161 6532 c-1 -8 -6 -10 -13 -6 -10 5 -10 4 -1 -6 15 -16 28 -8 20
12 -4 11 -6 11 -6 0z"/>
<path d="M7141 6494 c-1 -5 5 -18 12 -28 12 -16 13 -16 13 3 0 11 -3 18 -7 15
-4 -2 -10 2 -12 8 -3 7 -6 8 -6 2z"/>
<path d="M7111 6445 c4 -3 19 -8 35 -11 16 -3 26 -2 23 1 -4 3 -19 8 -35 11
-16 3 -26 2 -23 -1z"/>
<path d="M7112 6416 c7 -8 15 -12 17 -11 5 6 -10 25 -20 25 -5 0 -4 -6 3 -14z"/>
<path d="M7095 6399 c-4 -6 -5 -12 -2 -15 2 -3 7 2 10 11 7 17 1 20 -8 4z"/>
<path d="M7173 6395 c0 -8 4 -12 9 -9 4 3 8 9 8 15 0 5 -4 9 -8 9 -5 0 -9 -7
-9 -15z"/>
<path d="M7213 6391 c0 -11 5 -18 9 -15 4 3 5 11 1 19 -7 21 -12 19 -10 -4z"/>
<path d="M7105 6360 c3 -5 8 -10 11 -10 2 0 4 5 4 10 0 6 -5 10 -11 10 -5 0
-7 -4 -4 -10z"/>
<path d="M7120 6315 c-7 -9 -11 -17 -9 -20 3 -2 10 5 17 15 14 24 10 26 -8 5z"/>
<path d="M7133 6295 c-3 -9 -3 -18 -1 -21 3 -3 8 4 11 16 6 23 -1 27 -10 5z"/>
<path d="M7160 6295 c-7 -9 -11 -17 -9 -20 3 -2 10 5 17 15 14 24 10 26 -8 5z"/>
<path d="M7229 6283 c-13 -16 -12 -17 4 -4 16 13 21 21 13 21 -2 0 -10 -8 -17
-17z"/>
<path d="M7159 6233 c-12 -16 -12 -17 2 -6 9 7 20 9 24 5 5 -4 5 -1 1 6 -9 16
-11 15 -27 -5z"/>
<path d="M7138 6203 c6 -2 12 -9 12 -14 0 -6 -5 -7 -12 -3 -7 5 -8 3 -3 -5 5
-9 11 -9 17 -3 12 12 2 32 -15 31 -9 0 -9 -2 1 -6z"/>
<path d="M7110 6170 c0 -5 5 -10 11 -10 5 0 7 5 4 10 -3 6 -8 10 -11 10 -2 0
-4 -4 -4 -10z"/>
<path d="M7156 6147 c3 -10 9 -15 12 -12 3 3 0 11 -7 18 -10 9 -11 8 -5 -6z"/>
<path d="M7095 6140 c-3 -5 -1 -10 4 -10 6 0 11 5 11 10 0 6 -2 10 -4 10 -3 0
-8 -4 -11 -10z"/>
<path d="M7216 6138 c3 -4 11 -5 19 -1 21 7 19 12 -4 10 -11 0 -18 -5 -15 -9z"/>
<path d="M7096 6103 c-6 -14 -5 -15 5 -6 7 7 10 15 7 18 -3 3 -9 -2 -12 -12z"/>
<path d="M7110 6085 c0 -5 5 -17 10 -25 5 -8 10 -10 10 -5 0 6 -5 17 -10 25
-5 8 -10 11 -10 5z"/>
<path d="M7093 6042 c-1 -22 0 -24 9 -8 6 10 6 22 2 26 -5 5 -10 -3 -11 -18z"/>
<path d="M7186 6058 c3 -5 10 -6 15 -3 13 9 11 12 -6 12 -8 0 -12 -4 -9 -9z"/>
<path d="M7161 6052 c-1 -8 -6 -10 -13 -6 -10 5 -10 4 -1 -6 15 -16 28 -8 20
12 -4 11 -6 11 -6 0z"/>
<path d="M7189 6023 c-13 -16 -12 -17 4 -4 16 13 21 21 13 21 -2 0 -10 -8 -17
-17z"/>
<path d="M7141 6014 c-1 -5 5 -18 12 -28 12 -16 13 -16 13 3 0 11 -3 18 -7 15
-4 -2 -10 2 -12 8 -3 7 -6 8 -6 2z"/>
<path d="M7115 5939 c-4 -6 -5 -12 -2 -15 2 -3 7 2 10 11 7 17 1 20 -8 4z"/>
<path d="M7095 5900 c-3 -5 -1 -10 4 -10 6 0 11 5 11 10 0 6 -2 10 -4 10 -3 0
-8 -4 -11 -10z"/>
<path d="M7173 5885 c0 -8 4 -15 9 -15 4 0 8 4 8 9 0 6 -4 12 -8 15 -5 3 -9
-1 -9 -9z"/>
<path d="M7213 5871 c0 -11 5 -18 9 -15 4 3 5 11 1 19 -7 21 -12 19 -10 -4z"/>
<path d="M7096 5863 c-6 -14 -5 -15 5 -6 7 7 10 15 7 18 -3 3 -9 -2 -12 -12z"/>
<path d="M7115 5850 c-3 -5 -2 -18 4 -27 7 -14 9 -12 8 10 -2 30 -3 31 -12 17z"/>
<path d="M7140 5840 c0 -5 7 -7 15 -4 8 4 15 8 15 10 0 2 -7 4 -15 4 -8 0 -15
-4 -15 -10z"/>
<path d="M7093 5802 c-1 -22 0 -24 9 -8 6 10 6 22 2 26 -5 5 -10 -3 -11 -18z"/>
<path d="M7210 5821 c0 -6 4 -13 10 -16 6 -3 7 1 4 9 -7 18 -14 21 -14 7z"/>
<path d="M7154 5798 c-4 -7 -4 -10 1 -6 4 4 15 2 24 -5 14 -11 14 -10 2 6 -16
20 -18 21 -27 5z"/>
<path d="M7159 5753 c-12 -16 -12 -17 2 -6 9 7 20 9 24 5 5 -4 5 -1 1 6 -9 16
-11 15 -27 -5z"/>
<path d="M7215 5740 c3 -5 8 -10 11 -10 2 0 4 5 4 10 0 6 -5 10 -11 10 -5 0
-7 -4 -4 -10z"/>
<path d="M7138 5723 c6 -2 12 -9 12 -14 0 -6 -5 -7 -12 -3 -7 5 -8 3 -3 -5 5
-9 11 -9 17 -3 12 12 2 32 -15 31 -9 0 -9 -2 1 -6z"/>
<path d="M7216 5698 c3 -5 10 -6 15 -3 13 9 11 12 -6 12 -8 0 -12 -4 -9 -9z"/>
<path d="M7110 5690 c0 -5 5 -10 11 -10 5 0 7 5 4 10 -3 6 -8 10 -11 10 -2 0
-4 -4 -4 -10z"/>
<path d="M7156 5667 c3 -10 9 -15 12 -12 3 3 0 11 -7 18 -10 9 -11 8 -5 -6z"/>
<path d="M7095 5660 c-3 -5 -1 -10 4 -10 6 0 11 5 11 10 0 6 -2 10 -4 10 -3 0
-8 -4 -11 -10z"/>
<path d="M7195 5649 c-4 -6 -5 -12 -2 -15 2 -3 7 2 10 11 7 17 1 20 -8 4z"/>
<path d="M7096 5623 c-6 -14 -5 -15 5 -6 7 7 10 15 7 18 -3 3 -9 -2 -12 -12z"/>
<path d="M7110 5605 c0 -5 5 -17 10 -25 5 -8 10 -10 10 -5 0 6 -5 17 -10 25
-5 8 -10 11 -10 5z"/>
<path d="M7213 5591 c0 -11 5 -18 9 -15 4 3 5 11 1 19 -7 21 -12 19 -10 -4z"/>
<path d="M7093 5562 c-1 -22 0 -24 9 -8 6 10 6 22 2 26 -5 5 -10 -3 -11 -18z"/>
<path d="M7161 5572 c-1 -8 -6 -10 -13 -6 -10 5 -10 4 -1 -6 15 -16 28 -8 20
12 -4 11 -6 11 -6 0z"/>
<path d="M7141 5534 c-1 -5 5 -18 12 -28 12 -16 13 -16 13 3 0 11 -3 18 -7 15
-4 -2 -10 2 -12 8 -3 7 -6 8 -6 2z"/>
<path d="M7111 5485 c4 -3 19 -8 35 -11 16 -3 26 -2 23 1 -4 3 -19 8 -35 11
-16 3 -26 2 -23 -1z"/>
<path d="M7112 5456 c7 -8 15 -12 17 -11 5 6 -10 25 -20 25 -5 0 -4 -6 3 -14z"/>
<path d="M7095 5439 c-4 -6 -5 -12 -2 -15 2 -3 7 2 10 11 7 17 1 20 -8 4z"/>
<path d="M7173 5435 c0 -8 4 -12 9 -9 4 3 8 9 8 15 0 5 -4 9 -8 9 -5 0 -9 -7
-9 -15z"/>
<path d="M7213 5431 c0 -11 5 -18 9 -15 4 3 5 11 1 19 -7 21 -12 19 -10 -4z"/>
<path d="M7105 5400 c3 -5 8 -10 11 -10 2 0 4 5 4 10 0 6 -5 10 -11 10 -5 0
-7 -4 -4 -10z"/>
<path d="M7120 5355 c-7 -9 -11 -17 -9 -20 3 -2 10 5 17 15 14 24 10 26 -8 5z"/>
<path d="M7131 5331 c-8 -14 -7 -20 2 -24 7 -3 12 5 12 19 0 29 -1 29 -14 5z"/>
<path d="M7159 5333 c-13 -16 -12 -17 4 -4 9 7 17 15 17 17 0 8 -8 3 -21 -13z"/>
<path d="M7225 5320 c-10 -11 -16 -22 -14 -24 2 -2 12 7 22 20 22 29 17 32 -8
4z"/>
<path d="M7110 5251 c0 -6 5 -13 12 -17 6 -4 8 -3 4 4 -3 5 0 13 6 15 8 3 6 6
-4 6 -10 1 -18 -3 -18 -8z"/>
<path d="M7210 5239 c0 -5 5 -7 10 -4 6 3 10 8 10 11 0 2 -4 4 -10 4 -5 0 -10
-5 -10 -11z"/>
<path d="M7155 5221 c-3 -5 -2 -12 3 -15 5 -3 9 1 9 9 0 17 -3 19 -12 6z"/>
<path d="M7102 5201 c-7 -4 -5 -11 9 -20 16 -9 19 -10 13 0 -5 9 -2 10 9 6 23
-9 22 0 -1 12 -10 5 -23 6 -30 2z"/>
<path d="M7194 5189 c-3 -6 -2 -15 3 -20 5 -5 9 -1 9 11 0 23 -2 24 -12 9z"/>
<path d="M7120 5156 c0 -2 7 -7 16 -10 8 -3 12 -2 9 4 -6 10 -25 14 -25 6z"/>
<path d="M7214 5136 c1 -8 5 -18 8 -22 4 -3 5 1 4 10 -1 8 -5 18 -8 22 -4 3
-5 -1 -4 -10z"/>
<path d="M7110 5091 c0 -6 5 -13 12 -17 6 -4 8 -3 4 4 -3 5 0 13 6 15 8 3 6 6
-4 6 -10 1 -18 -3 -18 -8z"/>
<path d="M7155 5061 c-3 -5 -2 -12 3 -15 5 -3 9 1 9 9 0 17 -3 19 -12 6z"/>
<path d="M7115 5039 c6 -9 3 -11 -8 -6 -24 9 -21 0 4 -14 17 -9 20 -8 14 2 -6
9 -3 11 8 6 24 -9 21 0 -4 14 -17 9 -20 8 -14 -2z"/>
<path d="M7190 5020 c0 -5 5 -10 11 -10 5 0 7 5 4 10 -3 6 -8 10 -11 10 -2 0
-4 -4 -4 -10z"/>
<path d="M7220 4995 c-7 -9 -11 -17 -9 -20 3 -2 10 5 17 15 14 24 10 26 -8 5z"/>
<path d="M7120 4996 c0 -2 7 -7 16 -10 8 -3 12 -2 9 4 -6 10 -25 14 -25 6z"/>
<path d="M7106 4965 c-18 -14 -18 -14 1 -12 11 0 20 7 20 14 0 7 -1 13 -1 13
-1 0 -9 -7 -20 -15z"/>
<path d="M7110 4931 c0 -6 5 -13 12 -17 6 -4 8 -3 4 4 -3 5 0 13 6 15 8 3 6 6
-4 6 -10 1 -18 -3 -18 -8z"/>
<path d="M7210 4919 c0 -5 5 -7 10 -4 6 3 10 8 10 11 0 2 -4 4 -10 4 -5 0 -10
-5 -10 -11z"/>
<path d="M7156 4885 c4 -8 8 -15 10 -15 2 0 4 7 4 15 0 8 -4 15 -10 15 -5 0
-7 -7 -4 -15z"/>
<path d="M7115 4879 c6 -9 3 -11 -8 -6 -24 9 -21 0 4 -14 17 -9 20 -8 14 2 -6
9 -3 11 8 6 24 -9 21 0 -4 14 -17 9 -20 8 -14 -2z"/>
<path d="M7189 4863 c-13 -16 -12 -17 4 -4 16 13 21 21 13 21 -2 0 -10 -8 -17
-17z"/>
<path d="M7120 4836 c0 -2 7 -7 16 -10 8 -3 12 -2 9 4 -6 10 -25 14 -25 6z"/>
<path d="M7108 4807 c-15 -12 -15 -14 3 -25 10 -7 22 -12 26 -12 5 0 0 5 -10
11 -14 8 -16 14 -6 25 14 17 9 18 -13 1z"/>
<path d="M7140 4800 c-9 -6 -10 -10 -3 -10 6 0 15 5 18 10 8 12 4 12 -15 0z"/>
<path d="M7156 4782 c-3 -5 1 -9 9 -9 8 0 12 4 9 9 -3 4 -7 8 -9 8 -2 0 -6 -4
-9 -8z"/>
<path d="M7097 4755 c-6 -15 10 -32 20 -21 4 3 1 6 -5 6 -6 0 -9 7 -6 15 4 8
4 15 1 15 -3 0 -7 -7 -10 -15z"/>
<path d="M7213 4751 c0 -11 5 -18 9 -15 4 3 5 11 1 19 -7 21 -12 19 -10 -4z"/>
<path d="M7133 4736 c-4 -5 -1 -6 7 -1 9 5 11 1 6 -16 -3 -13 -3 -18 0 -11 3
6 11 9 17 5 7 -3 9 -3 5 2 -4 4 -4 13 2 19 6 8 3 12 -11 12 -11 0 -23 -5 -26
-10z"/>
<path d="M7099 4708 c0 -2 -2 -14 -5 -28 -3 -18 -2 -21 5 -10 5 8 7 18 4 24
-4 5 1 7 10 3 10 -3 17 -2 17 3 0 8 -28 15 -31 8z"/>
<path d="M7210 4705 c0 -5 5 -17 10 -25 5 -8 10 -10 10 -5 0 6 -5 17 -10 25
-5 8 -10 11 -10 5z"/>
<path d="M7136 4682 c-3 -5 1 -9 9 -9 8 0 12 4 9 9 -3 4 -7 8 -9 8 -2 0 -6 -4
-9 -8z"/>
<path d="M7159 4633 c-12 -16 -12 -17 2 -6 9 7 20 9 24 5 5 -4 5 -1 1 6 -9 16
-11 15 -27 -5z"/>
<path d="M7138 4603 c6 -2 12 -9 12 -14 0 -6 -5 -7 -12 -3 -7 5 -8 3 -3 -5 5
-9 11 -9 17 -3 12 12 2 32 -15 31 -9 0 -9 -2 1 -6z"/>
<path d="M7110 4570 c0 -5 5 -10 11 -10 5 0 7 5 4 10 -3 6 -8 10 -11 10 -2 0
-4 -4 -4 -10z"/>
<path d="M7156 4547 c3 -10 9 -15 12 -12 3 3 0 11 -7 18 -10 9 -11 8 -5 -6z"/>
<path d="M7095 4540 c-3 -5 -1 -10 4 -10 6 0 11 5 11 10 0 6 -2 10 -4 10 -3 0
-8 -4 -11 -10z"/>
<path d="M7216 4538 c3 -4 11 -5 19 -1 21 7 19 12 -4 10 -11 0 -18 -5 -15 -9z"/>
<path d="M7096 4503 c-6 -14 -5 -15 5 -6 7 7 10 15 7 18 -3 3 -9 -2 -12 -12z"/>
<path d="M7110 4485 c0 -5 5 -17 10 -25 5 -8 10 -10 10 -5 0 6 -5 17 -10 25
-5 8 -10 11 -10 5z"/>
<path d="M7093 4442 c-1 -22 0 -24 9 -8 6 10 6 22 2 26 -5 5 -10 -3 -11 -18z"/>
<path d="M7186 4458 c3 -5 10 -6 15 -3 13 9 11 12 -6 12 -8 0 -12 -4 -9 -9z"/>
<path d="M7161 4452 c-1 -8 -6 -10 -13 -6 -10 5 -10 4 -1 -6 15 -16 28 -8 20
12 -4 11 -6 11 -6 0z"/>
<path d="M7189 4423 c-13 -16 -12 -17 4 -4 16 13 21 21 13 21 -2 0 -10 -8 -17
-17z"/>
<path d="M7141 4414 c-1 -5 5 -18 12 -28 12 -16 13 -16 13 3 0 11 -3 18 -7 15
-4 -2 -10 2 -12 8 -3 7 -6 8 -6 2z"/>
<path d="M7115 4339 c-4 -6 -5 -12 -2 -15 2 -3 7 2 10 11 7 17 1 20 -8 4z"/>
<path d="M7136 4318 c3 -5 10 -6 15 -3 13 9 11 12 -6 12 -8 0 -12 -4 -9 -9z"/>
<path d="M7099 4308 c-5 -10 -4 -56 2 -53 7 5 9 55 3 55 -2 0 -5 -1 -5 -2z"/>
<path d="M7173 4285 c0 -8 4 -15 9 -15 4 0 8 4 8 9 0 6 -4 12 -8 15 -5 3 -9
-1 -9 -9z"/>
<path d="M7213 4271 c0 -11 5 -18 9 -15 4 3 5 11 1 19 -7 21 -12 19 -10 -4z"/>
<path d="M7116 4253 c-4 -9 -3 -20 1 -24 4 -4 9 3 9 17 2 28 -1 31 -10 7z"/>
<path d="M7140 4240 c0 -5 7 -7 15 -4 8 4 15 8 15 10 0 2 -7 4 -15 4 -8 0 -15
-4 -15 -10z"/>
<path d="M7093 4202 c-1 -22 0 -24 9 -8 6 10 6 22 2 26 -5 5 -10 -3 -11 -18z"/>
<path d="M7210 4221 c0 -6 4 -13 10 -16 6 -3 7 1 4 9 -7 18 -14 21 -14 7z"/>
<path d="M7154 4198 c-4 -7 -4 -10 1 -6 4 4 15 2 24 -5 14 -11 14 -10 2 6 -16
20 -18 21 -27 5z"/>
<path d="M7159 4153 c-12 -16 -12 -17 2 -6 9 7 20 9 24 5 5 -4 5 -1 1 6 -9 16
-11 15 -27 -5z"/>
<path d="M7215 4140 c-3 -5 -1 -10 4 -10 6 0 11 5 11 10 0 6 -2 10 -4 10 -3 0
-8 -4 -11 -10z"/>
<path d="M7138 4123 c6 -2 12 -9 12 -14 0 -6 -5 -7 -12 -3 -7 5 -8 3 -3 -5 5
-9 11 -9 17 -3 12 12 2 32 -15 31 -9 0 -9 -2 1 -6z"/>
<path d="M7216 4098 c3 -5 10 -6 15 -3 13 9 11 12 -6 12 -8 0 -12 -4 -9 -9z"/>
<path d="M7110 4090 c0 -5 5 -10 11 -10 5 0 7 5 4 10 -3 6 -8 10 -11 10 -2 0
-4 -4 -4 -10z"/>
<path d="M7156 4067 c3 -10 9 -15 12 -12 3 3 0 11 -7 18 -10 9 -11 8 -5 -6z"/>
<path d="M7095 4060 c-3 -5 -1 -10 4 -10 6 0 11 5 11 10 0 6 -2 10 -4 10 -3 0
-8 -4 -11 -10z"/>
<path d="M7124 4042 c4 -3 14 -7 22 -8 9 -1 13 0 10 4 -4 3 -14 7 -22 8 -9 1
-13 0 -10 -4z"/>
<path d="M7159 3993 c-12 -16 -12 -17 2 -6 9 7 20 9 24 5 5 -4 5 -1 1 6 -9 16
-11 15 -27 -5z"/>
<path d="M7138 3963 c6 -2 12 -9 12 -14 0 -6 -5 -7 -12 -3 -7 5 -8 3 -3 -5 5
-9 11 -9 17 -3 12 12 2 32 -15 31 -9 0 -9 -2 1 -6z"/>
<path d="M7110 3930 c0 -5 5 -10 11 -10 5 0 7 5 4 10 -3 6 -8 10 -11 10 -2 0
-4 -4 -4 -10z"/>
<path d="M7156 3907 c3 -10 9 -15 12 -12 3 3 0 11 -7 18 -10 9 -11 8 -5 -6z"/>
<path d="M7095 3900 c-3 -5 -1 -10 4 -10 6 0 11 5 11 10 0 6 -2 10 -4 10 -3 0
-8 -4 -11 -10z"/>
<path d="M7216 3898 c3 -4 11 -5 19 -1 21 7 19 12 -4 10 -11 0 -18 -5 -15 -9z"/>
<path d="M7096 3863 c-6 -14 -5 -15 5 -6 7 7 10 15 7 18 -3 3 -9 -2 -12 -12z"/>
<path d="M7110 3845 c0 -5 5 -17 10 -25 5 -8 10 -10 10 -5 0 6 -5 17 -10 25
-5 8 -10 11 -10 5z"/>
<path d="M7093 3802 c-1 -22 0 -24 9 -8 6 10 6 22 2 26 -5 5 -10 -3 -11 -18z"/>
<path d="M7186 3818 c3 -5 10 -6 15 -3 13 9 11 12 -6 12 -8 0 -12 -4 -9 -9z"/>
<path d="M7161 3812 c-1 -8 -6 -10 -13 -6 -10 5 -10 4 -1 -6 15 -16 28 -8 20
12 -4 11 -6 11 -6 0z"/>
<path d="M7189 3783 c-13 -16 -12 -17 4 -4 16 13 21 21 13 21 -2 0 -10 -8 -17
-17z"/>
<path d="M7141 3774 c-1 -5 5 -18 12 -28 12 -16 13 -16 13 3 0 11 -3 18 -7 15
-4 -2 -10 2 -12 8 -3 7 -6 8 -6 2z"/>
<path d="M7115 3699 c-4 -6 -5 -12 -2 -15 2 -3 7 2 10 11 7 17 1 20 -8 4z"/>
<path d="M7136 3678 c3 -5 10 -6 15 -3 13 9 11 12 -6 12 -8 0 -12 -4 -9 -9z"/>
<path d="M7099 3668 c-5 -10 -4 -56 2 -53 7 5 9 55 3 55 -2 0 -5 -1 -5 -2z"/>
<path d="M7173 3645 c0 -8 4 -15 9 -15 4 0 8 4 8 9 0 6 -4 12 -8 15 -5 3 -9
-1 -9 -9z"/>
<path d="M7213 3631 c0 -11 5 -18 9 -15 4 3 5 11 1 19 -7 21 -12 19 -10 -4z"/>
<path d="M7116 3613 c-4 -9 -3 -20 1 -24 4 -4 9 3 9 17 2 28 -1 31 -10 7z"/>
<path d="M7140 3600 c0 -5 7 -7 15 -4 8 4 15 8 15 10 0 2 -7 4 -15 4 -8 0 -15
-4 -15 -10z"/>
<path d="M7093 3562 c-1 -22 0 -24 9 -8 6 10 6 22 2 26 -5 5 -10 -3 -11 -18z"/>
<path d="M7210 3581 c0 -6 4 -13 10 -16 6 -3 7 1 4 9 -7 18 -14 21 -14 7z"/>
<path d="M7154 3558 c-4 -7 -4 -10 1 -6 4 4 15 2 24 -5 14 -11 14 -10 2 6 -16
20 -18 21 -27 5z"/>
<path d="M7159 3513 c-12 -16 -12 -17 2 -6 9 7 20 9 24 5 5 -4 5 -1 1 6 -9 16
-11 15 -27 -5z"/>
<path d="M7215 3500 c-3 -5 -1 -10 4 -10 6 0 11 5 11 10 0 6 -2 10 -4 10 -3 0
-8 -4 -11 -10z"/>
<path d="M7138 3483 c6 -2 12 -9 12 -14 0 -6 -5 -7 -12 -3 -7 5 -8 3 -3 -5 5
-9 11 -9 17 -3 12 12 2 32 -15 31 -9 0 -9 -2 1 -6z"/>
<path d="M7216 3458 c3 -5 10 -6 15 -3 13 9 11 12 -6 12 -8 0 -12 -4 -9 -9z"/>
<path d="M7110 3450 c0 -5 5 -10 11 -10 5 0 7 5 4 10 -3 6 -8 10 -11 10 -2 0
-4 -4 -4 -10z"/>
<path d="M7156 3427 c3 -10 9 -15 12 -12 3 3 0 11 -7 18 -10 9 -11 8 -5 -6z"/>
<path d="M7095 3420 c-3 -5 -1 -10 4 -10 6 0 11 5 11 10 0 6 -2 10 -4 10 -3 0
-8 -4 -11 -10z"/>
<path d="M7124 3402 c4 -3 14 -7 22 -8 9 -1 13 0 10 4 -4 3 -14 7 -22 8 -9 1
-13 0 -10 -4z"/>
<path d="M7159 3353 c-12 -16 -12 -17 2 -6 9 7 20 9 24 5 5 -4 5 -1 1 6 -9 16
-11 15 -27 -5z"/>
<path d="M7138 3323 c6 -2 12 -9 12 -14 0 -6 -5 -7 -12 -3 -7 5 -8 3 -3 -5 5
-9 11 -9 17 -3 12 12 2 32 -15 31 -9 0 -9 -2 1 -6z"/>
<path d="M7110 3290 c0 -5 5 -10 11 -10 5 0 7 5 4 10 -3 6 -8 10 -11 10 -2 0
-4 -4 -4 -10z"/>
<path d="M7156 3267 c3 -10 9 -15 12 -12 3 3 0 11 -7 18 -10 9 -11 8 -5 -6z"/>
<path d="M7095 3260 c-3 -5 -1 -10 4 -10 6 0 11 5 11 10 0 6 -2 10 -4 10 -3 0
-8 -4 -11 -10z"/>
<path d="M7216 3258 c3 -4 11 -5 19 -1 21 7 19 12 -4 10 -11 0 -18 -5 -15 -9z"/>
<path d="M7096 3223 c-6 -14 -5 -15 5 -6 7 7 10 15 7 18 -3 3 -9 -2 -12 -12z"/>
<path d="M7110 3205 c0 -5 5 -17 10 -25 5 -8 10 -10 10 -5 0 6 -5 17 -10 25
-5 8 -10 11 -10 5z"/>
<path d="M7093 3162 c-1 -22 0 -24 9 -8 6 10 6 22 2 26 -5 5 -10 -3 -11 -18z"/>
<path d="M7186 3178 c3 -5 10 -6 15 -3 13 9 11 12 -6 12 -8 0 -12 -4 -9 -9z"/>
<path d="M7161 3172 c-1 -8 -6 -10 -13 -6 -10 5 -10 4 -1 -6 15 -16 28 -8 20
12 -4 11 -6 11 -6 0z"/>
<path d="M7189 3143 c-13 -16 -12 -17 4 -4 16 13 21 21 13 21 -2 0 -10 -8 -17
-17z"/>
<path d="M7141 3134 c-1 -5 5 -18 12 -28 12 -16 13 -16 13 3 0 11 -3 18 -7 15
-4 -2 -10 2 -12 8 -3 7 -6 8 -6 2z"/>
<path d="M7115 3059 c-4 -6 -5 -12 -2 -15 2 -3 7 2 10 11 7 17 1 20 -8 4z"/>
<path d="M7136 3038 c3 -5 10 -6 15 -3 13 9 11 12 -6 12 -8 0 -12 -4 -9 -9z"/>
<path d="M7099 3028 c-5 -10 -4 -56 2 -53 7 5 9 55 3 55 -2 0 -5 -1 -5 -2z"/>
<path d="M7173 3005 c0 -8 4 -15 9 -15 4 0 8 4 8 9 0 6 -4 12 -8 15 -5 3 -9
-1 -9 -9z"/>
<path d="M7213 2991 c0 -11 5 -18 9 -15 4 3 5 11 1 19 -7 21 -12 19 -10 -4z"/>
<path d="M7116 2973 c-4 -9 -3 -20 1 -24 4 -4 9 3 9 17 2 28 -1 31 -10 7z"/>
<path d="M7140 2960 c0 -5 7 -7 15 -4 8 4 15 8 15 10 0 2 -7 4 -15 4 -8 0 -15
-4 -15 -10z"/>
<path d="M7093 2922 c-1 -22 0 -24 9 -8 6 10 6 22 2 26 -5 5 -10 -3 -11 -18z"/>
<path d="M7210 2941 c0 -6 4 -13 10 -16 6 -3 7 1 4 9 -7 18 -14 21 -14 7z"/>
<path d="M7154 2918 c-4 -7 -4 -10 1 -6 4 4 15 2 24 -5 14 -11 14 -10 2 6 -16
20 -18 21 -27 5z"/>
<path d="M7159 2873 c-12 -16 -12 -17 2 -6 9 7 20 9 24 5 5 -4 5 -1 1 6 -9 16
-11 15 -27 -5z"/>
<path d="M7215 2860 c-3 -5 -1 -10 4 -10 6 0 11 5 11 10 0 6 -2 10 -4 10 -3 0
-8 -4 -11 -10z"/>
<path d="M7138 2843 c6 -2 12 -9 12 -14 0 -6 -5 -7 -12 -3 -7 5 -8 3 -3 -5 5
-9 11 -9 17 -3 12 12 2 32 -15 31 -9 0 -9 -2 1 -6z"/>
<path d="M7216 2818 c3 -5 10 -6 15 -3 13 9 11 12 -6 12 -8 0 -12 -4 -9 -9z"/>
<path d="M7110 2810 c0 -5 5 -10 11 -10 5 0 7 5 4 10 -3 6 -8 10 -11 10 -2 0
-4 -4 -4 -10z"/>
<path d="M7156 2787 c3 -10 9 -15 12 -12 3 3 0 11 -7 18 -10 9 -11 8 -5 -6z"/>
<path d="M7095 2780 c-3 -5 -1 -10 4 -10 6 0 11 5 11 10 0 6 -2 10 -4 10 -3 0
-8 -4 -11 -10z"/>
<path d="M7124 2762 c4 -3 14 -7 22 -8 9 -1 13 0 10 4 -4 3 -14 7 -22 8 -9 1
-13 0 -10 -4z"/>
<path d="M7159 2713 c-12 -16 -12 -17 2 -6 9 7 20 9 24 5 5 -4 5 -1 1 6 -9 16
-11 15 -27 -5z"/>
<path d="M7138 2683 c6 -2 12 -9 12 -14 0 -6 -5 -7 -12 -3 -7 5 -8 3 -3 -5 5
-9 11 -9 17 -3 12 12 2 32 -15 31 -9 0 -9 -2 1 -6z"/>
<path d="M7110 2650 c0 -5 5 -10 11 -10 5 0 7 5 4 10 -3 6 -8 10 -11 10 -2 0
-4 -4 -4 -10z"/>
<path d="M7156 2627 c3 -10 9 -15 12 -12 3 3 0 11 -7 18 -10 9 -11 8 -5 -6z"/>
<path d="M7095 2620 c-3 -5 -1 -10 4 -10 6 0 11 5 11 10 0 6 -2 10 -4 10 -3 0
-8 -4 -11 -10z"/>
<path d="M7216 2618 c3 -4 11 -5 19 -1 21 7 19 12 -4 10 -11 0 -18 -5 -15 -9z"/>
<path d="M7096 2583 c-6 -14 -5 -15 5 -6 7 7 10 15 7 18 -3 3 -9 -2 -12 -12z"/>
<path d="M7110 2565 c0 -5 5 -17 10 -25 5 -8 10 -10 10 -5 0 6 -5 17 -10 25
-5 8 -10 11 -10 5z"/>
<path d="M7093 2522 c-1 -22 0 -24 9 -8 6 10 6 22 2 26 -5 5 -10 -3 -11 -18z"/>
<path d="M7186 2538 c3 -5 10 -6 15 -3 13 9 11 12 -6 12 -8 0 -12 -4 -9 -9z"/>
<path d="M7161 2532 c-1 -8 -6 -10 -13 -6 -10 5 -10 4 -1 -6 15 -16 28 -8 20
12 -4 11 -6 11 -6 0z"/>
<path d="M7189 2503 c-13 -16 -12 -17 4 -4 16 13 21 21 13 21 -2 0 -10 -8 -17
-17z"/>
<path d="M7141 2494 c-1 -5 5 -18 12 -28 12 -16 13 -16 13 3 0 11 -3 18 -7 15
-4 -2 -10 2 -12 8 -3 7 -6 8 -6 2z"/>
<path d="M7115 2419 c-4 -6 -5 -12 -2 -15 2 -3 7 2 10 11 7 17 1 20 -8 4z"/>
<path d="M7136 2398 c3 -5 10 -6 15 -3 13 9 11 12 -6 12 -8 0 -12 -4 -9 -9z"/>
<path d="M7099 2388 c-5 -10 -4 -56 2 -53 7 5 9 55 3 55 -2 0 -5 -1 -5 -2z"/>
<path d="M7173 2365 c0 -8 4 -15 9 -15 4 0 8 4 8 9 0 6 -4 12 -8 15 -5 3 -9
-1 -9 -9z"/>
<path d="M7213 2351 c0 -11 5 -18 9 -15 4 3 5 11 1 19 -7 21 -12 19 -10 -4z"/>
<path d="M7116 2333 c-4 -9 -3 -20 1 -24 4 -4 9 3 9 17 2 28 -1 31 -10 7z"/>
<path d="M7140 2320 c0 -5 7 -7 15 -4 8 4 15 8 15 10 0 2 -7 4 -15 4 -8 0 -15
-4 -15 -10z"/>
<path d="M7093 2282 c-1 -22 0 -24 9 -8 6 10 6 22 2 26 -5 5 -10 -3 -11 -18z"/>
<path d="M7210 2301 c0 -6 4 -13 10 -16 6 -3 7 1 4 9 -7 18 -14 21 -14 7z"/>
<path d="M7154 2278 c-4 -7 -4 -10 1 -6 4 4 15 2 24 -5 14 -11 14 -10 2 6 -16
20 -18 21 -27 5z"/>
<path d="M7159 2233 c-12 -16 -12 -17 2 -6 9 7 20 9 24 5 5 -4 5 -1 1 6 -9 16
-11 15 -27 -5z"/>
<path d="M7215 2220 c-3 -5 -1 -10 4 -10 6 0 11 5 11 10 0 6 -2 10 -4 10 -3 0
-8 -4 -11 -10z"/>
<path d="M7138 2203 c6 -2 12 -9 12 -14 0 -6 -5 -7 -12 -3 -7 5 -8 3 -3 -5 5
-9 11 -9 17 -3 12 12 2 32 -15 31 -9 0 -9 -2 1 -6z"/>
<path d="M7216 2178 c3 -5 10 -6 15 -3 13 9 11 12 -6 12 -8 0 -12 -4 -9 -9z"/>
<path d="M7110 2170 c0 -5 5 -10 11 -10 5 0 7 5 4 10 -3 6 -8 10 -11 10 -2 0
-4 -4 -4 -10z"/>
<path d="M7156 2147 c3 -10 9 -15 12 -12 3 3 0 11 -7 18 -10 9 -11 8 -5 -6z"/>
<path d="M7095 2140 c-3 -5 -1 -10 4 -10 6 0 11 5 11 10 0 6 -2 10 -4 10 -3 0
-8 -4 -11 -10z"/>
<path d="M7195 2129 c-4 -6 -5 -12 -2 -15 2 -3 7 2 10 11 7 17 1 20 -8 4z"/>
<path d="M7096 2103 c-6 -14 -5 -15 5 -6 7 7 10 15 7 18 -3 3 -9 -2 -12 -12z"/>
<path d="M7110 2085 c0 -5 5 -17 10 -25 5 -8 10 -10 10 -5 0 6 -5 17 -10 25
-5 8 -10 11 -10 5z"/>
<path d="M7213 2071 c0 -11 5 -18 9 -15 4 3 5 11 1 19 -7 21 -12 19 -10 -4z"/>
<path d="M7093 2042 c-1 -22 0 -24 9 -8 6 10 6 22 2 26 -5 5 -10 -3 -11 -18z"/>
<path d="M7161 2052 c-1 -8 -6 -10 -13 -6 -10 5 -10 4 -1 -6 15 -16 28 -8 20
12 -4 11 -6 11 -6 0z"/>
<path d="M7141 2014 c-1 -5 5 -18 12 -28 12 -16 13 -16 13 3 0 11 -3 18 -7 15
-4 -2 -10 2 -12 8 -3 7 -6 8 -6 2z"/>
<path d="M7099 1948 c0 -2 -2 -14 -5 -28 -3 -18 -2 -21 5 -10 5 8 8 17 5 21
-2 4 4 10 13 12 17 4 17 5 1 6 -10 0 -18 0 -19 -1z"/>
<path d="M7140 1920 c8 -5 20 -10 25 -10 6 0 3 5 -5 10 -8 5 -19 10 -25 10 -5
0 -3 -5 5 -10z"/>
<path d="M7135 1890 c-3 -5 -11 -8 -18 -6 -7 1 -9 1 -5 -1 4 -2 4 -12 1 -21
-3 -9 -4 -15 -2 -12 2 3 13 15 23 28 11 12 16 22 13 22 -3 0 -8 -4 -12 -10z"/>
<path d="M7150 1865 c0 -7 30 -13 34 -7 3 4 -4 9 -15 9 -10 1 -19 0 -19 -2z"/>
<path d="M7131 1844 c0 -11 3 -14 6 -6 3 7 2 16 -1 19 -3 4 -6 -2 -5 -13z"/>
<path d="M2915 1810 c-4 -6 -11 -8 -16 -5 -5 3 -6 -1 -3 -10 4 -9 7 -15 8 -13
1 2 8 11 15 21 7 9 11 17 8 17 -3 0 -9 -5 -12 -10z"/>
<path d="M2941 1797 c-13 -21 -13 -21 4 -7 17 14 18 13 11 -5 -5 -15 -4 -17 4
-8 8 7 9 17 3 27 -7 13 -10 12 -22 -7z"/>
<path d="M3066 1805 c-3 -8 -1 -15 4 -15 6 0 10 7 10 15 0 8 -2 15 -4 15 -2 0
-6 -7 -10 -15z"/>
<path d="M3166 1805 c10 -8 24 -14 29 -14 6 0 1 6 -9 14 -11 8 -24 15 -30 15
-5 0 -1 -7 10 -15z"/>
<path d="M3221 1811 c-17 -11 -5 -31 19 -31 13 0 18 -6 15 -19 -3 -14 1 -18
12 -14 10 4 11 8 3 13 -6 4 -11 11 -10 16 0 5 -9 10 -20 12 -17 3 -19 6 -9 18
13 16 10 18 -10 5z"/>
<path d="M3255 1810 c-3 -6 1 -7 9 -4 18 7 21 14 7 14 -6 0 -13 -4 -16 -10z"/>
<path d="M3302 1813 c-6 -2 -9 -10 -5 -16 4 -7 0 -8 -11 -4 -10 4 -15 3 -11
-3 10 -16 23 -12 35 10 6 11 9 20 8 19 -2 0 -9 -3 -16 -6z"/>
<path d="M3329 1803 c-13 -17 -13 -17 6 -3 11 8 22 16 24 17 2 2 0 3 -6 3 -6
0 -17 -8 -24 -17z"/>
<path d="M3363 1799 c-28 -18 -36 -39 -16 -39 4 0 3 3 0 7 -4 3 1 12 11 19 23
18 37 17 22 -1 -9 -10 -9 -15 -1 -15 6 0 11 5 11 10 0 6 3 9 8 9 19 -3 33 2
28 10 -4 5 0 12 6 14 10 4 10 6 0 6 -7 1 -15 -6 -18 -14 -4 -8 -10 -12 -15 -9
-5 3 -7 10 -4 15 9 13 4 11 -32 -12z"/>
<path d="M3637 1800 c4 -14 1 -20 -8 -18 -7 2 -14 -6 -16 -17 -3 -18 -2 -18 5
-2 4 10 12 18 17 17 6 0 11 8 13 20 2 11 -1 20 -6 20 -6 0 -8 -9 -5 -20z"/>
<path d="M3721 1811 c-8 -5 -20 -7 -27 -4 -18 6 -29 -18 -13 -28 9 -6 18 -3
25 6 6 8 13 13 15 11 2 -2 10 2 17 10 14 16 4 18 -17 5z m-21 -21 c0 -5 -2
-10 -4 -10 -3 0 -8 5 -11 10 -3 6 -1 10 4 10 6 0 11 -4 11 -10z"/>
<path d="M3950 1800 c-13 -11 -26 -18 -29 -15 -3 4 1 10 9 15 9 6 10 10 3 10
-15 0 -26 -17 -18 -30 7 -11 39 3 63 27 21 21 -2 15 -28 -7z"/>
<path d="M4117 1800 c3 -11 7 -20 9 -20 2 0 4 9 4 20 0 11 -4 20 -9 20 -5 0
-7 -9 -4 -20z"/>
<path d="M4173 1808 c-13 -6 -23 -15 -23 -20 0 -5 11 -1 25 8 37 24 35 30 -2
12z"/>
<path d="M4215 1810 c-3 -6 1 -7 9 -4 18 7 21 14 7 14 -6 0 -13 -4 -16 -10z"/>
<path d="M4263 1813 c-15 -5 -17 -23 -4 -23 5 0 11 7 15 15 3 8 4 15 3 14 -1
0 -8 -3 -14 -6z"/>
<path d="M4289 1803 c-13 -17 -13 -17 6 -3 11 8 22 16 24 17 2 2 0 3 -6 3 -6
0 -17 -8 -24 -17z"/>
<path d="M4326 1801 c-26 -17 -50 -61 -25 -45 5 3 7 10 4 15 -4 5 -1 9 4 9 6
0 14 0 19 0 4 0 7 -4 7 -9 0 -5 3 -12 7 -16 9 -9 4 17 -6 34 -7 11 -5 13 6 9
9 -4 15 0 15 8 0 8 -1 14 -1 14 -1 0 -14 -9 -30 -19z"/>
<path d="M4377 1813 c-10 -10 -8 -23 4 -23 5 0 8 4 5 9 -4 5 0 12 6 14 7 3 8
6 2 6 -6 1 -14 -2 -17 -6z"/>
<path d="M4421 1811 c-17 -11 -5 -31 19 -31 13 0 18 -6 15 -19 -3 -14 1 -18
12 -14 10 4 11 8 3 13 -6 4 -11 11 -10 16 0 5 -9 10 -20 12 -17 3 -19 6 -9 18
13 16 10 18 -10 5z"/>
<path d="M4511 1804 c0 -11 3 -14 6 -6 3 7 2 16 -1 19 -3 4 -6 -2 -5 -13z"/>
<path d="M4594 1800 c0 -11 5 -20 10 -19 5 0 17 -12 27 -28 10 -15 19 -24 19
-20 0 17 -33 56 -42 51 -6 -4 -8 2 -3 15 3 11 2 21 -3 21 -5 0 -9 -9 -8 -20z"/>
<path d="M4681 1811 c-8 -5 -20 -7 -27 -4 -17 6 -25 -10 -12 -27 8 -12 9 -12
4 3 -7 21 7 22 24 2 9 -10 9 -15 1 -15 -6 0 -11 -4 -11 -8 0 -5 7 -9 15 -9 8
0 12 4 10 8 -3 4 2 10 11 13 13 5 14 9 5 20 -9 11 -9 15 1 19 7 3 9 6 3 6 -5
0 -16 -3 -24 -8z m14 -21 c3 -5 2 -10 -4 -10 -5 0 -13 5 -16 10 -3 6 -2 10 4
10 5 0 13 -4 16 -10z"/>
<path d="M4836 1805 c4 -8 8 -15 10 -15 2 0 4 7 4 15 0 8 -4 15 -10 15 -5 0
-7 -7 -4 -15z"/>
<path d="M4920 1811 c-8 -6 -18 -7 -22 -5 -4 3 -16 0 -25 -6 -16 -9 -15 -10 5
-5 16 5 22 3 20 -7 -4 -18 44 -17 49 2 3 9 1 11 -4 5 -9 -11 -43 -19 -43 -11
0 3 12 12 28 20 15 8 23 15 17 15 -5 1 -17 -3 -25 -8z"/>
<path d="M5151 1804 c0 -11 3 -14 6 -6 3 7 2 16 -1 19 -3 4 -6 -2 -5 -13z"/>
<path d="M5234 1800 c0 -11 5 -20 10 -19 5 0 17 -12 27 -28 10 -15 19 -24 19
-20 0 17 -33 56 -42 51 -6 -4 -8 2 -3 15 3 11 2 21 -3 21 -5 0 -9 -9 -8 -20z"/>
<path d="M5321 1811 c-8 -5 -20 -7 -27 -4 -17 6 -25 -10 -12 -27 8 -12 9 -12
4 3 -7 21 7 22 24 2 9 -10 9 -15 1 -15 -6 0 -11 -4 -11 -8 0 -5 7 -9 15 -9 8
0 12 4 10 8 -3 4 2 10 11 13 13 5 14 9 5 20 -9 11 -9 15 1 19 7 3 9 6 3 6 -5
0 -16 -3 -24 -8z m14 -21 c3 -5 2 -10 -4 -10 -5 0 -13 5 -16 10 -3 6 -2 10 4
10 5 0 13 -4 16 -10z"/>
<path d="M5476 1805 c4 -8 8 -15 10 -15 2 0 4 7 4 15 0 8 -4 15 -10 15 -5 0
-7 -7 -4 -15z"/>
<path d="M5560 1811 c-8 -6 -18 -7 -22 -5 -4 3 -16 0 -25 -6 -16 -9 -15 -10 5
-5 16 5 22 3 20 -7 -4 -18 44 -17 49 2 3 9 1 11 -4 5 -9 -11 -43 -19 -43 -11
0 3 12 12 28 20 15 8 23 15 17 15 -5 1 -17 -3 -25 -8z"/>
<path d="M5630 1815 c0 -5 5 -17 10 -25 5 -8 10 -10 10 -5 0 6 -5 17 -10 25
-5 8 -10 11 -10 5z"/>
<path d="M5781 1811 c-17 -11 -5 -31 19 -31 13 0 18 -6 15 -19 -3 -14 1 -18
12 -14 10 4 11 8 3 13 -6 4 -11 11 -10 16 0 5 -9 10 -20 12 -17 3 -19 6 -9 18
13 16 10 18 -10 5z"/>
<path d="M5815 1810 c-3 -6 1 -7 9 -4 18 7 21 14 7 14 -6 0 -13 -4 -16 -10z"/>
<path d="M5862 1813 c-6 -2 -9 -10 -5 -16 4 -7 0 -8 -11 -4 -10 4 -15 3 -11
-3 10 -16 23 -12 35 10 6 11 9 20 8 19 -2 0 -9 -3 -16 -6z"/>
<path d="M5889 1803 c-13 -17 -13 -17 6 -3 11 8 22 16 24 17 2 2 0 3 -6 3 -6
0 -17 -8 -24 -17z"/>
<path d="M5923 1799 c-28 -18 -36 -39 -16 -39 4 0 3 3 0 7 -4 3 1 12 11 19 23
18 37 17 22 -1 -9 -10 -9 -15 -1 -15 6 0 11 5 11 10 0 6 3 9 8 9 19 -3 33 2
28 10 -4 5 0 12 6 14 10 4 10 6 0 6 -7 1 -15 -6 -18 -14 -4 -8 -10 -12 -15 -9
-5 3 -7 10 -4 15 9 13 4 11 -32 -12z"/>
<path d="M6197 1800 c4 -14 1 -20 -8 -18 -7 2 -14 -6 -16 -17 -3 -18 -2 -18 5
-2 4 10 12 18 17 17 6 0 11 8 13 20 2 11 -1 20 -6 20 -6 0 -8 -9 -5 -20z"/>
<path d="M6281 1811 c-8 -5 -20 -7 -27 -4 -18 6 -29 -18 -13 -28 9 -6 18 -3
25 6 6 8 13 13 15 11 2 -2 10 2 17 10 14 16 4 18 -17 5z m-21 -21 c0 -5 -2
-10 -4 -10 -3 0 -8 5 -11 10 -3 6 -1 10 4 10 6 0 11 -4 11 -10z"/>
<path d="M6593 1793 c1 -21 5 -29 11 -23 6 6 14 3 21 -7 10 -13 14 -13 20 -3
5 8 4 11 -2 7 -6 -4 -14 0 -17 9 -3 8 -10 13 -15 9 -5 -3 -12 5 -14 17 -3 15
-4 11 -4 -9z"/>
<path d="M6777 1813 c-10 -10 -8 -23 4 -23 5 0 8 4 5 9 -4 5 0 12 6 14 7 3 8
6 2 6 -6 1 -14 -2 -17 -6z"/>
<path d="M6820 1810 c-13 -9 -13 -11 0 -20 8 -5 20 -10 27 -10 6 0 9 -10 7
-22 -4 -21 -4 -21 5 -3 10 24 5 35 -16 35 -9 0 -13 6 -9 15 6 18 6 18 -14 5z"/>
<path d="M6855 1810 c-3 -6 1 -7 9 -4 18 7 21 14 7 14 -6 0 -13 -4 -16 -10z"/>
<path d="M6902 1811 c-11 -7 -11 -9 0 -14 9 -3 15 1 15 9 0 8 -1 14 -1 14 -1
0 -7 -4 -14 -9z"/>
<path d="M6935 1809 c-4 -6 -5 -11 -4 -12 2 -2 13 -9 24 -17 20 -14 20 -14 2
7 -14 16 -15 22 -5 26 9 4 9 6 1 6 -6 1 -15 -4 -18 -10z"/>
<path d="M7041 1813 c-1 -17 16 -25 25 -12 4 7 3 9 -4 5 -5 -3 -13 0 -15 6 -4
9 -6 10 -6 1z"/>
<path d="M2995 1800 c3 -5 11 -10 16 -10 6 0 7 5 4 10 -3 6 -11 10 -16 10 -6
0 -7 -4 -4 -10z"/>
<path d="M6970 1800 c0 -5 5 -10 10 -10 6 0 10 5 10 10 0 6 -4 10 -10 10 -5 0
-10 -4 -10 -10z"/>
<path d="M7005 1800 c-3 -6 1 -7 9 -4 18 7 21 14 7 14 -6 0 -13 -4 -16 -10z"/>
<path d="M7156 1793 c-6 -14 -5 -15 5 -6 7 7 10 15 7 18 -3 3 -9 -2 -12 -12z"/>
<path d="M6882 1787 c10 -8 14 -18 10 -22 -4 -5 -1 -5 6 -1 17 10 15 14 -10
26 -21 10 -21 10 -6 -3z"/>
<path d="M7079 1798 c-6 -23 -7 -48 -1 -52 4 -2 7 9 7 25 1 24 -2 38 -6 27z"/>
<path d="M3030 1780 c0 -5 5 -10 10 -10 6 0 10 5 10 10 0 6 -4 10 -10 10 -5 0
-10 -4 -10 -10z"/>
<path d="M3150 1780 c0 -5 5 -10 10 -10 6 0 10 5 10 10 0 6 -4 10 -10 10 -5 0
-10 -4 -10 -10z"/>
<path d="M3735 1780 c-4 -7 -2 -17 4 -23 9 -9 11 -7 6 8 -7 20 -6 20 9 1 9
-11 16 -15 16 -9 0 18 -27 36 -35 23z"/>
<path d="M4179 1783 c-1 -4 -1 -12 0 -17 1 -4 -10 -5 -24 -2 -16 4 -25 2 -25
-5 0 -7 3 -10 6 -6 3 3 17 2 29 -3 20 -8 23 -6 20 11 -3 13 2 19 15 19 13 0
18 -6 15 -20 -3 -17 -1 -19 16 -10 10 6 19 16 18 23 0 9 -2 9 -6 0 -6 -17 -24
-17 -20 -1 1 7 -8 14 -20 16 -13 2 -24 0 -24 -5z"/>
<path d="M4484 1779 c-5 -8 -3 -9 6 -4 10 6 12 4 7 -8 -3 -9 -3 -18 1 -21 4
-3 8 4 9 14 2 23 -13 35 -23 19z"/>
<path d="M5082 1760 c-18 -24 -18 -26 -2 -26 11 0 16 6 12 15 -3 9 -1 12 6 7
7 -4 10 -2 7 6 -4 9 2 14 15 14 12 0 19 -5 16 -13 -3 -7 -1 -15 3 -17 5 -3 8
4 7 16 -2 32 -40 31 -64 -2z"/>
<path d="M5723 1761 c-19 -25 -19 -27 -3 -27 11 0 16 6 12 15 -3 9 -1 12 6 7
8 -5 10 -1 5 11 -5 15 -2 14 19 -5 18 -16 25 -18 25 -8 0 8 -4 13 -9 10 -4 -3
-8 -1 -8 4 0 23 -29 18 -47 -7z"/>
<path d="M6295 1780 c-4 -7 -2 -17 4 -23 9 -9 11 -7 6 8 -7 20 -6 20 9 1 9
-11 16 -15 16 -9 0 18 -27 36 -35 23z"/>
<path d="M6471 1769 c-13 -10 -19 -19 -13 -19 5 0 15 7 22 15 11 13 15 13 21
3 6 -9 9 -9 9 -1 0 21 -14 22 -39 2z"/>
<path d="M7015 1780 c-4 -6 1 -7 12 -3 16 6 17 5 3 -13 -14 -18 -14 -18 2 -5
10 7 15 17 12 22 -7 12 -21 11 -29 -1z"/>
<path d="M3193 1772 c-8 -5 -4 -11 11 -18 17 -8 23 -8 23 2 0 7 -4 11 -8 8 -4
-2 -9 0 -11 6 -1 5 -8 6 -15 2z"/>
<path d="M3310 1765 c0 -8 4 -15 10 -15 5 0 7 7 4 15 -4 8 -8 15 -10 15 -2 0
-4 -7 -4 -15z"/>
<path d="M3430 1771 c0 -5 7 -11 14 -14 10 -4 13 -1 9 9 -6 15 -23 19 -23 5z"/>
<path d="M4390 1772 c0 -4 8 -12 18 -19 15 -9 19 -8 19 3 0 7 -4 11 -9 8 -4
-3 -8 0 -8 5 0 6 -4 11 -10 11 -5 0 -10 -3 -10 -8z"/>
<path d="M4882 1764 c10 -10 20 -16 22 -13 3 3 -5 11 -17 18 -21 13 -21 12 -5
-5z"/>
<path d="M5522 1764 c10 -10 20 -16 22 -13 3 3 -5 11 -17 18 -21 13 -21 12 -5
-5z"/>
<path d="M5870 1765 c0 -8 4 -15 10 -15 5 0 7 7 4 15 -4 8 -8 15 -10 15 -2 0
-4 -7 -4 -15z"/>
<path d="M5990 1771 c0 -5 7 -11 14 -14 10 -4 13 -1 9 9 -6 15 -23 19 -23 5z"/>
<path d="M6790 1771 c0 -14 29 -21 36 -9 4 7 3 8 -4 4 -7 -4 -12 -2 -12 3 0 6
-4 11 -10 11 -5 0 -10 -4 -10 -9z"/>
<path d="M6916 1765 c-3 -8 -1 -15 4 -15 6 0 10 7 10 15 0 8 -2 15 -4 15 -2 0
-6 -7 -10 -15z"/>
<path d="M2876 1758 c3 -5 10 -6 15 -3 13 9 11 12 -6 12 -8 0 -12 -4 -9 -9z"/>
<path d="M2990 1766 c0 -3 9 -10 20 -16 11 -6 20 -8 20 -6 0 3 -9 10 -20 16
-11 6 -20 8 -20 6z"/>
<path d="M3060 1766 c0 -2 7 -6 15 -10 8 -3 15 -1 15 4 0 6 -7 10 -15 10 -8 0
-15 -2 -15 -4z"/>
<path d="M3516 1762 c-3 -4 4 -9 15 -9 23 -2 25 3 4 10 -8 4 -16 3 -19 -1z"/>
<path d="M3650 1766 c0 -2 7 -7 16 -10 8 -3 12 -2 9 4 -6 10 -25 14 -25 6z"/>
<path d="M3708 1753 c-4 -13 0 -19 13 -19 14 0 16 3 6 16 -6 8 -12 16 -13 18
-1 1 -4 -5 -6 -15z"/>
<path d="M3825 1759 c-4 -6 -5 -12 -2 -15 2 -3 7 2 10 11 7 17 1 20 -8 4z"/>
<path d="M3890 1766 c0 -2 7 -7 16 -10 8 -3 12 -2 9 4 -6 10 -25 14 -25 6z"/>
<path d="M4005 1760 c-3 -6 1 -7 9 -4 18 7 21 14 7 14 -6 0 -13 -4 -16 -10z"/>
<path d="M4064 1759 c-5 -8 -3 -9 6 -4 7 4 16 2 22 -6 8 -12 9 -12 6 0 -6 20
-24 25 -34 10z"/>
<path d="M4706 1761 c-4 -5 4 -7 16 -3 16 4 19 2 13 -8 -5 -9 -4 -11 4 -6 6 4
9 12 6 17 -8 12 -32 12 -39 0z"/>
<path d="M4775 1761 c-4 -7 1 -8 12 -4 15 6 16 4 6 -8 -10 -12 -8 -15 10 -16
15 -2 18 0 9 6 -8 5 -13 12 -12 17 2 13 -17 17 -25 5z"/>
<path d="M4950 1766 c0 -2 7 -7 16 -10 8 -3 12 -2 9 4 -6 10 -25 14 -25 6z"/>
<path d="M5010 1766 c0 -2 7 -7 16 -10 8 -3 12 -2 9 4 -6 10 -25 14 -25 6z"/>
<path d="M5346 1761 c-4 -5 4 -7 16 -3 16 4 19 2 13 -8 -5 -9 -4 -11 4 -6 6 4
9 12 6 17 -8 12 -32 12 -39 0z"/>
<path d="M5415 1761 c-4 -7 1 -8 12 -4 15 6 16 4 6 -8 -10 -12 -8 -15 10 -16
15 -2 18 0 9 6 -8 5 -13 12 -12 17 2 13 -17 17 -25 5z"/>
<path d="M5602 1756 c7 -8 15 -12 17 -11 5 6 -10 25 -20 25 -5 0 -4 -6 3 -14z"/>
<path d="M5650 1762 c0 -5 7 -9 15 -9 8 0 12 4 9 9 -3 4 -9 8 -15 8 -5 0 -9
-4 -9 -8z"/>
<path d="M6076 1762 c-3 -4 4 -9 15 -9 23 -2 25 3 4 10 -8 4 -16 3 -19 -1z"/>
<path d="M6210 1766 c0 -2 7 -7 16 -10 8 -3 12 -2 9 4 -6 10 -25 14 -25 6z"/>
<path d="M6268 1753 c-4 -13 0 -19 13 -19 14 0 16 3 6 16 -6 8 -12 16 -13 18
-1 1 -4 -5 -6 -15z"/>
<path d="M6385 1759 c-11 -16 -1 -19 13 -3 7 8 8 14 3 14 -5 0 -13 -5 -16 -11z"/>
<path d="M3560 1756 c0 -2 7 -7 16 -10 8 -3 12 -2 9 4 -6 10 -25 14 -25 6z"/>
<path d="M4554 1746 c1 -8 5 -18 8 -22 4 -3 5 1 4 10 -1 8 -5 18 -8 22 -4 3
-5 -1 -4 -10z"/>
<path d="M4920 1756 c0 -2 7 -7 16 -10 8 -3 12 -2 9 4 -6 10 -25 14 -25 6z"/>
<path d="M5194 1746 c1 -8 5 -18 8 -22 4 -3 5 1 4 10 -1 8 -5 18 -8 22 -4 3
-5 -1 -4 -10z"/>
<path d="M5560 1756 c0 -2 7 -7 16 -10 8 -3 12 -2 9 4 -6 10 -25 14 -25 6z"/>
<path d="M6120 1756 c0 -2 7 -7 16 -10 8 -3 12 -2 9 4 -6 10 -25 14 -25 6z"/>
<path d="M6415 1750 c-3 -6 1 -7 9 -4 18 7 21 14 7 14 -6 0 -13 -4 -16 -10z"/>
<path d="M6554 1752 c3 -5 2 -12 -3 -14 -5 -1 3 -12 17 -22 27 -20 27 -20 9 0
-9 12 -14 23 -11 26 3 3 0 9 -7 14 -7 4 -10 3 -5 -4z"/>
<path d="M6656 1751 c-4 -5 3 -7 14 -4 23 6 26 13 6 13 -8 0 -17 -4 -20 -9z"/>
<path d="M6873 1747 c0 -7 9 -14 20 -14 11 -1 18 -1 16 0 -2 2 -11 8 -20 15
-12 9 -16 9 -16 -1z"/>
<path d="M6960 1756 c0 -2 7 -7 16 -10 8 -3 12 -2 9 4 -6 10 -25 14 -25 6z"/>
<path d="M2989 1737 c6 -8 7 -18 3 -22 -4 -5 -1 -5 6 -1 10 6 10 11 1 22 -6 8
-14 14 -16 14 -3 0 0 -6 6 -13z"/>
<path d="M3108 1732 c4 -10 7 -12 10 -4 2 7 9 9 15 5 7 -3 8 -2 4 2 -14 16
-36 14 -29 -3z"/>
<path d="M3637 1737 c4 -6 0 -8 -9 -5 -8 4 -15 0 -15 -7 0 -10 5 -11 18 -4 24
12 31 26 14 26 -8 0 -11 -5 -8 -10z"/>
<path d="M3873 1726 c-2 -19 -1 -19 8 -3 6 9 16 14 22 11 7 -4 8 -3 4 1 -15
17 -33 12 -34 -9z"/>
<path d="M4038 1730 c12 -10 19 -20 17 -24 -3 -3 -2 -4 2 -1 15 11 11 34 -5
28 -9 -4 -13 -2 -9 4 3 5 -1 10 -10 10 -13 0 -12 -4 5 -17z"/>
<path d="M4588 1743 c7 -3 16 -2 19 1 4 3 -2 6 -13 5 -11 0 -14 -3 -6 -6z"/>
<path d="M4993 1726 c-2 -19 -1 -19 8 -3 6 9 16 14 22 11 7 -4 8 -3 4 1 -15
17 -33 12 -34 -9z"/>
<path d="M5228 1743 c7 -3 16 -2 19 1 4 3 -2 6 -13 5 -11 0 -14 -3 -6 -6z"/>
<path d="M6197 1737 c4 -6 0 -8 -9 -5 -8 4 -15 0 -15 -7 0 -10 5 -11 18 -4 24
12 31 26 14 26 -8 0 -11 -5 -8 -10z"/>
<path d="M6595 1740 c27 -12 43 -12 25 0 -8 5 -22 9 -30 9 -10 0 -8 -3 5 -9z"/>
<path d="M7130 1740 c0 -5 5 -10 11 -10 5 0 7 5 4 10 -3 6 -8 10 -11 10 -2 0
-4 -4 -4 -10z"/>
<path d="M3154 1726 c1 -8 5 -18 8 -22 4 -3 5 1 4 10 -1 8 -5 18 -8 22 -4 3
-5 -1 -4 -10z"/>
<path d="M3333 1726 c0 -15 22 -15 34 0 4 5 4 6 -1 2 -5 -4 -14 -3 -21 2 -8 7
-12 5 -12 -4z"/>
<path d="M3795 1720 c2 -27 10 -33 12 -10 1 11 -2 22 -6 24 -4 3 -7 -4 -6 -14z"/>
<path d="M3851 1724 c0 -11 3 -14 6 -6 3 7 2 16 -1 19 -3 4 -6 -2 -5 -13z"/>
<path d="M4115 1730 c-4 -6 -10 -8 -15 -5 -5 3 -11 2 -14 -3 -2 -4 6 -8 18 -8
12 0 23 6 23 13 0 16 -4 16 -12 3z"/>
<path d="M4335 1730 c-4 -6 -10 -8 -15 -5 -10 6 -7 -21 4 -32 4 -4 6 -1 4 7
-1 8 2 14 8 13 6 -1 11 5 11 13 0 17 -4 18 -12 4z"/>
<path d="M4754 1729 c-3 -6 -2 -15 3 -20 5 -5 9 -1 9 11 0 23 -2 24 -12 9z"/>
<path d="M4971 1724 c0 -11 3 -14 6 -6 3 7 2 16 -1 19 -3 4 -6 -2 -5 -13z"/>
<path d="M5114 1726 c1 -8 5 -18 8 -22 4 -3 5 1 4 10 -1 8 -5 18 -8 22 -4 3
-5 -1 -4 -10z"/>
<path d="M5394 1729 c-3 -6 -2 -15 3 -20 5 -5 9 -1 9 11 0 23 -2 24 -12 9z"/>
<path d="M5635 1731 c-3 -5 -2 -12 3 -15 5 -3 9 1 9 9 0 17 -3 19 -12 6z"/>
<path d="M5893 1726 c0 -15 22 -15 34 0 4 5 4 6 -1 2 -5 -4 -14 -3 -21 2 -8 7
-12 5 -12 -4z"/>
<path d="M6355 1720 c2 -27 10 -33 12 -10 1 11 -2 22 -6 24 -4 3 -7 -4 -6 -14z"/>
<path d="M6726 1725 c-18 -14 -18 -14 1 -12 11 0 20 7 20 14 0 7 -1 13 -1 13
-1 0 -9 -7 -20 -15z"/>
<path d="M3234 1715 c3 -23 12 -26 13 -5 1 11 -2 20 -7 20 -4 0 -7 -7 -6 -15z"/>
<path d="M3576 1722 c-3 -5 1 -9 9 -9 8 0 12 4 9 9 -3 4 -7 8 -9 8 -2 0 -6 -4
-9 -8z"/>
<path d="M4433 1710 c1 -21 10 -18 13 5 1 8 -2 15 -6 15 -5 0 -8 -9 -7 -20z"/>
<path d="M5794 1715 c3 -23 12 -26 13 -5 1 11 -2 20 -7 20 -4 0 -7 -7 -6 -15z"/>
<path d="M6136 1722 c-3 -5 1 -9 9 -9 8 0 12 4 9 9 -3 4 -7 8 -9 8 -2 0 -6 -4
-9 -8z"/>
<path d="M6486 1718 c3 -5 10 -6 15 -3 13 9 11 12 -6 12 -8 0 -12 -4 -9 -9z"/>
<path d="M6939 1728 c-5 -18 -6 -38 -1 -34 7 8 12 36 6 36 -2 0 -4 -1 -5 -2z"/>
<path d="M6976 1713 c-6 -14 -5 -15 5 -6 7 7 10 15 7 18 -3 3 -9 -2 -12 -12z"/>
<path d="M3273 1705 c0 -8 4 -12 9 -9 5 3 6 10 3 15 -9 13 -12 11 -12 -6z"/>
<path d="M3435 1711 c-3 -5 -2 -12 3 -15 5 -3 9 1 9 9 0 17 -3 19 -12 6z"/>
<path d="M4395 1711 c-3 -5 -2 -12 3 -15 5 -3 9 1 9 9 0 17 -3 19 -12 6z"/>
<path d="M5833 1705 c0 -8 4 -12 9 -9 5 3 6 10 3 15 -9 13 -12 11 -12 -6z"/>
<path d="M5995 1711 c-3 -5 -2 -12 3 -15 5 -3 9 1 9 9 0 17 -3 19 -12 6z"/>
<path d="M6795 1711 c-3 -5 -2 -12 3 -15 5 -3 9 1 9 9 0 17 -3 19 -12 6z"/>
<path d="M6869 1703 c-13 -16 -12 -17 4 -4 16 13 21 21 13 21 -2 0 -10 -8 -17
-17z"/>
<path d="M6830 1699 c0 -5 5 -7 10 -4 6 3 10 8 10 11 0 2 -4 4 -10 4 -5 0 -10
-5 -10 -11z"/>
<path d="M2993 1685 c0 -8 4 -12 9 -9 5 3 6 10 3 15 -9 13 -12 11 -12 -6z"/>
<path d="M3080 1680 c-9 -6 -10 -10 -3 -10 6 0 15 5 18 10 8 12 4 12 -15 0z"/>
<path d="M3135 1680 c3 -5 8 -10 11 -10 2 0 4 5 4 10 0 6 -5 10 -11 10 -5 0
-7 -4 -4 -10z"/>
<path d="M3320 1680 c-9 -6 -10 -10 -3 -10 6 0 15 5 18 10 8 12 4 12 -15 0z"/>
<path d="M3387 1679 c7 -7 15 -10 18 -7 3 3 -2 9 -12 12 -14 6 -15 5 -6 -5z"/>
<path d="M3970 1679 c0 -5 5 -7 10 -4 6 3 10 8 10 11 0 2 -4 4 -10 4 -5 0 -10
-5 -10 -11z"/>
<path d="M4016 1682 c-3 -5 1 -9 9 -9 8 0 12 4 9 9 -3 4 -7 8 -9 8 -2 0 -6 -4
-9 -8z"/>
<path d="M4230 1680 c0 -5 5 -10 10 -10 6 0 10 5 10 10 0 6 -4 10 -10 10 -5 0
-10 -4 -10 -10z"/>
<path d="M4630 1681 c0 -6 4 -13 10 -16 6 -3 7 1 4 9 -7 18 -14 21 -14 7z"/>
<path d="M4680 1680 c-9 -6 -10 -10 -3 -10 6 0 15 5 18 10 8 12 4 12 -15 0z"/>
<path d="M4735 1680 c3 -5 8 -10 11 -10 2 0 4 5 4 10 0 6 -5 10 -11 10 -5 0
-7 -4 -4 -10z"/>
<path d="M4816 1678 c3 -5 10 -6 15 -3 13 9 11 12 -6 12 -8 0 -12 -4 -9 -9z"/>
<path d="M5090 1679 c0 -5 5 -7 10 -4 6 3 10 8 10 11 0 2 -4 4 -10 4 -5 0 -10
-5 -10 -11z"/>
<path d="M5270 1681 c0 -6 4 -13 10 -16 6 -3 7 1 4 9 -7 18 -14 21 -14 7z"/>
<path d="M5320 1680 c-9 -6 -10 -10 -3 -10 6 0 15 5 18 10 8 12 4 12 -15 0z"/>
<path d="M5375 1680 c3 -5 8 -10 11 -10 2 0 4 5 4 10 0 6 -5 10 -11 10 -5 0
-7 -4 -4 -10z"/>
<path d="M5456 1678 c3 -5 10 -6 15 -3 13 9 11 12 -6 12 -8 0 -12 -4 -9 -9z"/>
<path d="M5726 1678 c3 -5 10 -6 15 -3 13 9 11 12 -6 12 -8 0 -12 -4 -9 -9z"/>
<path d="M5880 1680 c-9 -6 -10 -10 -3 -10 6 0 15 5 18 10 8 12 4 12 -15 0z"/>
<path d="M5947 1679 c7 -7 15 -10 18 -7 3 3 -2 9 -12 12 -14 6 -15 5 -6 -5z"/>
<path d="M5725 1640 c10 -11 20 -20 23 -20 3 0 -3 9 -13 20 -10 11 -20 20 -23
20 -3 0 3 -9 13 -20z"/>
<path d="M6515 1649 c-4 -6 -5 -12 -2 -15 2 -3 7 2 10 11 7 17 1 20 -8 4z"/>
<path d="M4360 1646 c0 -2 8 -10 18 -17 15 -13 16 -12 3 4 -13 16 -21 21 -21
13z"/>
<path d="M5645 1640 c-3 -6 1 -7 9 -4 18 7 21 14 7 14 -6 0 -13 -4 -16 -10z"/>
</g>
</svg>
